<svg id="Livello_1" data-name="Livello 1" xmlns="http://www.w3.org/2000/svg" xmlns:xlink="http://www.w3.org/1999/xlink" viewBox="0 0 768.38 384.94"><defs><style>.cls-1,.cls-5{fill:#f50057;}.cls-1,.cls-4,.cls-7{opacity:0.1;}.cls-1,.cls-4{isolation:isolate;}.cls-2{fill:url(#Sfumatura_senza_nome_2);}.cls-3{fill:#fff;}.cls-6{fill:#3f3d56;}.cls-8{fill:#fbbebe;}.cls-9{fill:url(#Sfumatura_senza_nome_2-2);}.cls-10{fill:#cf6f80;}.cls-11{fill:#512e4e;}.cls-12{fill:#535461;}.cls-13{fill:#9d9cb5;}.cls-14{fill:none;stroke:#535461;stroke-miterlimit:10;stroke-width:2px;}</style><linearGradient id="Sfumatura_senza_nome_2" x1="372.11" y1="6.09" x2="372.11" y2="240.06" gradientTransform="matrix(1, 0, 0, -1, -15.95, 364.44)" gradientUnits="userSpaceOnUse"><stop offset="0" stop-color="gray" stop-opacity="0.25"/><stop offset="0.54" stop-color="gray" stop-opacity="0.12"/><stop offset="1" stop-color="gray" stop-opacity="0.1"/></linearGradient><linearGradient id="Sfumatura_senza_nome_2-2" x1="532.85" y1="-4.17" x2="532.85" y2="245.03" xlink:href="#Sfumatura_senza_nome_2"/></defs><path class="cls-1" d="M198.57,156.91h41.09v56H201.57c-.1.58-.19,1.15-.3,1.73h38.39v45.17a.56.56,0,0,1-.19-.07c-1.08-.43-2.16-.88-3.24-1.36-.23-.11-.45-.22-.69-.32q-1.62-.76-3.24-1.62c-.37-.2-.75-.4-1.12-.62A67.1,67.1,0,0,1,215,243.28l-.4-.41c-.66-.71-1.3-1.43-1.93-2.17l-.69-.81c-.74-.9-1.45-1.83-2.14-2.77-.1-.14-.2-.28-.3-.4a59.81,59.81,0,0,1-7-12.6c-.06-.13-.11-.28-.16-.4-.56-1.42-1.07-2.86-1.5-4.32-.19-.62-.37-1.22-.53-1.85l-.15-.56c-2.27-9-2.54-18.29-2.54-27.57v-3.24c0-3.79.08-7.57.14-11.35l.06-2.93q.09-3.72.24-7.46c0-.69.06-1.38.1-2.06,0-.4,0-.8.06-1.19C198.38,159.75,198.47,158.33,198.57,156.91Z"/><path class="cls-1" d="M239.66,94.53H217.12a171.64,171.64,0,0,1,12-16.49c3.35-4.12,6.89-8.13,10.55-12Z"/><path class="cls-1" d="M239.66,96.26v58.92h-41a4.38,4.38,0,0,1,0-.51c0-.47.07-.93.11-1.4s.09-1.08.14-1.62.11-1.18.17-1.77.12-1.18.19-1.77.13-1.17.2-1.76.14-1.17.22-1.75.12-1,.19-1.46c.09-.68.19-1.37.29-2a1.57,1.57,0,0,1,.05-.3,140.39,140.39,0,0,1,3-14.79,109.7,109.7,0,0,1,5.08-15A113.2,113.2,0,0,1,216,96.26Z"/><path class="cls-1" d="M249.48,156.91v56h87.79v-56Zm0,57.76v48.11c.5.11,1,.21,1.5.29.66.13,1.34.25,2,.35l.41.06.81.11c.67.1,1.35.17,2,.23.32,0,.65.06,1,.09l.78.06h0l1.26.07.79,0h2.86c.35,0,.7,0,1,0h0a5.86,5.86,0,0,0,.73,0h.21a4,4,0,0,0,.6,0h.13l1.36-.1,1.35-.14.92-.11a81.17,81.17,0,0,0,11.12-2.37c8.19-2.28,16.2-5.48,24.39-7.82,10.58-3,22.27-4.5,32.5-.83V214.67ZM337.27,94.53V20a112.82,112.82,0,0,0-28.52,3.34c-22.23,5.59-42.19,17.7-59.27,33.17V94.53h4.42v1.73h-4.42v58.92h87.79V96.26H272V94.53ZM450.05,69.34a36.18,36.18,0,0,1-15.91-4.63c-9.45-5.13-17-13.08-25.45-19.78a116.89,116.89,0,0,0-61.6-24.48V94.53H472.4l.31-.32Zm11.42-2L473.58,80.6V63.82a48.2,48.2,0,0,0-12.11,3.48Zm12.11,207.42V214.67H447.76c-.06-.26-.14-.51-.22-.77.08.26.15.51.22.77H347.09V258.1c1,.71,1.9,1.46,2.84,2.21h0c1,.83,2,1.67,3,2.51l1,.83c.48.41,1,.81,1.46,1.2,1,.78,2,1.56,2.94,2.33.5.39,1,.77,1.49,1.14a202.5,202.5,0,0,0,25,16.33q2.93,1.64,5.91,3.16c1.32.68,2.65,1.35,4,2q3,1.47,6.08,2.84h0a223,223,0,0,0,59.13,17.22q6.8,1,13.65,1.58V274.72h0ZM347.09,96.26v58.92H473.58V96.26Zm0,60.64v56H473.58v-56Zm136.3-93.16V82.49l15.45-17Q491.16,64.27,483.39,63.74Zm0,93.17v56h123v-56ZM606,279.17l.43-64.5h-123V312.1a221.94,221.94,0,0,0,23.78-.29h.14q5.67-.36,11.28-1h.09a207.79,207.79,0,0,0,58-15.5m53.46-129.17q-.71-1.62-1.44-3.24c-.92-2-1.88-4-2.88-6h-9.6v56H640.5c0-15.87-4-32.07-10.35-46.83Zm-13.92,48.56v55.49A79.2,79.2,0,0,0,633,247.54a77.83,77.83,0,0,0,7.48-32.87Zm0-74.08v14.58h8.7A156.62,156.62,0,0,0,616.23,140.59ZM532.8,74.73c-.64-.24-1.28-.49-1.92-.72a174.87,174.87,0,0,0-20.78-6.25L486.46,93.7h0l-.47.5.31.33h84.15A180.18,180.18,0,0,0,532.8,74.73Zm40.12,21.53h-87.8l-1.73,1.58v57.34h123V127.4A174.82,174.82,0,0,0,572.92,96.26Z"/><path class="cls-1" d="M239.66,126v29.2h-41a4.38,4.38,0,0,1,0-.51c0-.47.07-.93.11-1.4s.09-1.08.14-1.62.11-1.18.17-1.77.12-1.18.19-1.77.13-1.17.2-1.76.14-1.17.22-1.75.12-1,.19-1.46c.09-.68.19-1.37.29-2a1.57,1.57,0,0,1,.05-.3,140.39,140.39,0,0,1,3-14.79Z"/><path class="cls-1" d="M198.57,156.91h41.09v56H201.57c-.1.58-.19,1.15-.3,1.73h38.39v45.17a.56.56,0,0,1-.19-.07c-1.08-.43-2.16-.88-3.24-1.36-.23-.11-.45-.22-.69-.32q-1.62-.76-3.24-1.62c-.37-.2-.75-.4-1.12-.62A67.1,67.1,0,0,1,215,243.28l-.4-.41c-.66-.71-1.3-1.43-1.93-2.17l-.69-.81c-.74-.9-1.45-1.83-2.14-2.77-.1-.14-.2-.28-.3-.4a59.81,59.81,0,0,1-7-12.6c-.06-.13-.11-.28-.16-.4-.56-1.42-1.07-2.86-1.5-4.32-.19-.62-.37-1.22-.53-1.85l-.15-.56c-2.27-9-2.54-18.29-2.54-27.57v-3.24c0-3.79.08-7.57.14-11.35l.06-2.93q.09-3.72.24-7.46c0-.69.06-1.38.1-2.06,0-.4,0-.8.06-1.19C198.38,159.75,198.47,158.33,198.57,156.91Z"/><polygon class="cls-1" points="280.38 104.7 280.38 155.18 249.48 155.18 249.48 104.7 253.88 104.7 253.88 87.61 271.97 87.61 271.97 104.7 280.38 104.7"/><rect class="cls-1" x="249.48" y="156.91" width="30.9" height="56.02"/><path class="cls-1" d="M249.48,214.67h30.9v46.58a82.52,82.52,0,0,1-11.11,2.36l-.92.11-1.36.14-1.35.11h-.14l-.6,0h-.21c-.24,0-.48,0-.72,0h0c-.35,0-.69,0-1,0H260a7,7,0,0,1-.79,0c-.41,0-.83,0-1.26-.08h0l-.78,0-1-.09c-.68-.06-1.35-.14-2-.23l-.81-.12-.41-.05c-.67-.11-1.35-.22-2-.35l-1.5-.29Z"/><rect class="cls-1" x="448.09" y="98.74" width="25.48" height="56.44"/><polygon class="cls-1" points="473.58 156.91 473.58 212.94 347.09 212.94 347.09 188.77 414.46 188.77 414.46 203.03 448.09 203.03 448.09 156.91 473.58 156.91"/><path class="cls-1" d="M474,274.74a2.82,2.82,0,0,1-.41,0v36.75q-6.84-.56-13.65-1.57a223.61,223.61,0,0,1-59.15-17.21q-8.16-3.69-16-8a203.55,203.55,0,0,1-25-16.33q-3-2.28-5.89-4.66c-1.34-1.11-2.67-2.25-4-3.35-.94-.75-1.88-1.5-2.84-2.22V214.67H447.76c-.08-.26-.14-.51-.21-.77.07.26.15.51.21.77h25.82v60.05Z"/><path class="cls-1" d="M540,94.53H523.43V89.38h7.44V74c.65.23,1.29.48,1.93.72V89.38H540Z"/><path class="cls-1" d="M580.05,155.18H483.39V98.74h4.29v41.72h19.58V115.75h16.18V96.26H540v19.51h16.17v24.7h23.84Z"/><path class="cls-1" d="M483.39,156.91v56h96.66v-56Zm122.88,122,.14-44.35H580.05V214.69H483.39V312.1a221.94,221.94,0,0,0,23.78-.29h.14q5.67-.36,11.28-1h.09a207.79,207.79,0,0,0,58-15.5"/><path class="cls-1" d="M617.93,214.67h22.55A77.83,77.83,0,0,1,633,247.54a79.2,79.2,0,0,1-16.77,22.62V234.52h1.7Z"/><path class="cls-1" d="M640.5,212.94H617.93V166.11h12.22C636.46,180.87,640.48,197.07,640.5,212.94Z"/><rect class="cls-1" x="459.92" y="114.43" width="13.65" height="17.69"/><rect class="cls-1" x="459.92" y="151.11" width="13.65" height="4.07"/><rect class="cls-1" x="459.92" y="156.91" width="13.65" height="11.89"/><rect class="cls-1" x="459.92" y="187.78" width="13.65" height="17.69"/><rect class="cls-1" x="459.92" y="224.46" width="13.65" height="17.69"/><path class="cls-1" d="M473.58,274.72a2.75,2.75,0,0,1,.4,0,2.68,2.68,0,0,1-.4,0v4.11H459.92V261.14h13.66Z"/><path class="cls-1" d="M473.58,297.81v13.66q-6.85-.56-13.66-1.57V297.81Z"/><rect class="cls-1" x="347.09" y="211.64" width="58.51" height="1.3"/><rect class="cls-1" x="347.09" y="214.67" width="58.51" height="4.98"/><rect class="cls-1" x="347.09" y="235.98" width="58.51" height="8.01"/><path class="cls-1" d="M405.6,260.32v8H359.84q-3-2.28-5.89-4.68c-1.35-1.1-2.68-2.23-4-3.33Z"/><path class="cls-1" d="M405.6,284.65v8h-4.83q-8.16-3.69-16-8Z"/><rect class="cls-1" x="507.17" y="162.34" width="11.52" height="11.52"/><rect class="cls-1" x="257.78" y="108.67" width="11.52" height="11.52"/><rect class="cls-1" x="257.78" y="135.43" width="11.52" height="11.52"/><rect class="cls-1" x="257.78" y="162.18" width="11.52" height="11.52"/><rect class="cls-1" x="257.78" y="188.93" width="11.52" height="11.52"/><rect class="cls-1" x="257.78" y="215.69" width="11.52" height="11.52"/><rect class="cls-1" x="257.78" y="242.44" width="11.52" height="11.52"/><rect class="cls-1" x="551.14" y="162.34" width="11.52" height="11.52"/><rect class="cls-1" x="507.17" y="190.75" width="11.52" height="11.52"/><rect class="cls-1" x="551.14" y="190.75" width="11.52" height="11.52"/><rect class="cls-1" x="507.17" y="219.16" width="11.52" height="11.52"/><rect class="cls-1" x="551.14" y="219.16" width="11.52" height="11.52"/><rect class="cls-1" x="507.17" y="247.57" width="11.52" height="11.52"/><rect class="cls-1" x="551.14" y="247.57" width="11.52" height="11.52"/><rect class="cls-1" x="507.17" y="275.98" width="11.52" height="11.52"/><rect class="cls-1" x="551.14" y="275.98" width="11.52" height="11.52"/><polygon class="cls-1" points="507.17 311.81 507.17 304.39 518.68 304.39 518.68 310.76 507.17 311.81"/><path class="cls-1" d="M200.25,140.77v6.59h39.41v-6.59Zm3.92,6.18h-3.24v-5.76h3.24Zm3.93,0h-3.24v-5.76h3.24Zm3.92,0h-3.24v-5.76H212Zm3.92,0H212.7v-5.76h3.24Zm3.92,0h-3.24v-5.76h3.24Zm3.92,0h-3.24v-5.76h3.24Zm3.93,0h-3.24v-5.76h3.24Zm3.92,0h-3.24v-5.76h3.24Zm3.92,0h-3.24v-5.76h3.24Zm3.92,0h-3.24v-5.76h3.24Z"/><path class="cls-1" d="M200.25,160v6.59h39.41V160Zm3.92,6.18h-3.24v-5.76h3.24Zm3.93,0h-3.24v-5.76h3.24Zm3.92,0h-3.24v-5.76H212Zm3.92,0H212.7v-5.76h3.24Zm3.92,0h-3.24v-5.76h3.24Zm3.92,0h-3.24v-5.76h3.24Zm3.93,0h-3.24v-5.76h3.24Zm3.92,0h-3.24v-5.76h3.24Zm3.92,0h-3.24v-5.76h3.24Zm3.92,0h-3.24v-5.76h3.24Z"/><path class="cls-1" d="M200.25,179.14v6.58h39.41v-6.58Zm3.92,6.17h-3.24v-5.76h3.24Zm3.93,0h-3.24v-5.76h3.24Zm3.92,0h-3.24v-5.76H212Zm3.92,0H212.7v-5.76h3.24Zm3.92,0h-3.24v-5.76h3.24Zm3.92,0h-3.24v-5.76h3.24Zm3.93,0h-3.24v-5.76h3.24Zm3.92,0h-3.24v-5.76h3.24Zm3.92,0h-3.24v-5.76h3.24Zm3.92,0h-3.24v-5.76h3.24Z"/><path class="cls-1" d="M200.25,198.32v6.59h39.41v-6.59Zm3.92,6.17h-3.24v-5.76h3.24Zm3.93,0h-3.24v-5.76h3.24Zm3.92,0h-3.24v-5.76H212Zm3.92,0H212.7v-5.76h3.24Zm3.92,0h-3.24v-5.76h3.24Zm3.92,0h-3.24v-5.76h3.24Zm3.93,0h-3.24v-5.76h3.24Zm3.92,0h-3.24v-5.76h3.24Zm3.92,0h-3.24v-5.76h3.24Zm3.92,0h-3.24v-5.76h3.24Z"/><path class="cls-1" d="M200.44,217.49c.15.63.34,1.24.52,1.85v-1.43h3.24v5.76h-1.73c0,.13.1.27.15.4h37.06v-6.58Zm7.7,6.18H204.9v-5.76h3.24Zm3.91,0h-3.24v-5.76h3.24Zm3.93,0h-3.24v-5.76H216Zm3.92,0h-3.24v-5.76h3.24Zm3.92,0h-3.24v-5.76h3.24Zm3.93,0h-3.24v-5.76h3.24Zm3.92,0h-3.24v-5.76h3.24Zm3.92,0h-3.24v-5.76h3.24Zm3.92,0h-3.24v-5.76h3.24Z"/><path class="cls-1" d="M209.57,236.67l.3.41H212v2.76l.69.81v-3.59H216v5.81h-1.33c.13.13.25.28.4.41h24.64v-6.61Zm10.31,6.2h-3.24v-5.78h3.24Zm3.93,0h-3.24v-5.78h3.24Zm3.92,0h-3.24v-5.78h3.24Zm3.92,0h-3.24v-5.78h3.24Zm3.92,0h-3.24v-5.78h3.24Zm3.92,0h-3.24v-5.78h3.24Z"/><path class="cls-1" d="M231.19,255.85c.37.22.75.41,1.13.62v-.21h3.24v1.83l.69.32v-2.15h3.24v3.51l.19.07v-4Z"/><path class="cls-1" d="M498.52,155.18ZM473.57,274.72Zm-26-60.82c.08.26.15.51.22.77h0C447.7,214.41,447.62,214.16,447.54,213.9Zm51-58.72ZM253.9,94.53v1.73H272V94.53ZM473.58,274.72Zm-26-60.82c.08.26.15.51.22.77h0C447.7,214.41,447.62,214.16,447.54,213.9Zm51-58.72ZM473.57,274.72Zm-26-60.82c.08.26.15.51.22.77h0C447.7,214.41,447.62,214.16,447.54,213.9Z"/><ellipse class="cls-1" cx="523.78" cy="363.07" rx="39.46" ry="6.34"/><ellipse class="cls-1" cx="345.8" cy="356.73" rx="39.46" ry="6.34"/><path class="cls-2" d="M391.24,189.13a.17.17,0,0,0-.06-.1c-.61-.6-8.3-11.48-8.3-11.48s-.41-1.22-1.06-2.8a2.79,2.79,0,0,0,.46-.91,3.1,3.1,0,0,0,.08-.42s0-.08,0-.13a3.06,3.06,0,0,0,0-1.67,2.9,2.9,0,0,1-.16.41,7.54,7.54,0,0,0-.61-1.36c-1-1.75-2.48-3.24-3.55-4.95a13.4,13.4,0,0,1-1.83-8.89v.48a13.88,13.88,0,0,1,.24-1.83,13.09,13.09,0,0,1,.68-2c1-2.2,2.52-4.13,3.47-6.34a12,12,0,0,0,.72-2.32,12.7,12.7,0,0,0,.36-4.07,6.25,6.25,0,0,1-.1,1,13.18,13.18,0,0,0-3.72-8.77c-3.31-3.33-8.06-4.62-12.6-5.3a11.49,11.49,0,0,1-5.31-2,9.2,9.2,0,0,0-6-1.15,9.92,9.92,0,0,0-6.15,3c-2.16,2.38-3.1,5.74-5.62,7.74-1.52,1.21-3.46,1.78-5.24,2.61s-3.46,2-4,3.79v.07l0,.06c-.59,2.1.55,4.24,1.14,6.33a26,26,0,0,1,.7,6.69c0,2.74.08,5.48,0,8.23,0,1.07-.06,2.16-.14,3.24a17.14,17.14,0,0,0-2.78,1.11,56.05,56.05,0,0,0-4.3,4.26L320.87,197l.09.1-.09.35.33-.08a34,34,0,0,0,6.78,5.69l.28,5a8.84,8.84,0,0,0,4.93,7.05c.11,1.73.43,8.75-1.08,11.53a12.94,12.94,0,0,0-1.44,6.6s.53,4.22-.07,6.44a10.6,10.6,0,0,0-.08,4.52h0v1.33c0,4.49.06,18.88,0,20.51-.07,1.93,0,30.38,0,30.38s-.37,14.22-1.58,18.07-.9,16.6-.9,16.6-.76,15.19,1.92,18.19c0,.14,0,.27,0,.41v.19c0,1.15.19,2.38,1.18,2.76a17.08,17.08,0,0,1,5.21,3.77c.5.67,3.45,2.34,7.29,1.89a54.68,54.68,0,0,1,7.24-.33h0s1.52-.28,1-2.16h0a17.23,17.23,0,0,0-2.34-4.17,3.93,3.93,0,0,0,.44.1l.15,0h.61c1-.09,4.8,1.67,5.48,2.84s3.06,2.05,4.86,2.27a34.6,34.6,0,0,0,6-.38,21.58,21.58,0,0,0,3.38-.61c.53-.21.65-.85.49-1.58h0a4.09,4.09,0,0,0-1.4-2.37,11.2,11.2,0,0,1-2.16-2.69l-.17-.28c1.13-1.07,3.17-4.6,3.79-5.33.75-.88-1.22-33.32-1.22-33.32V294l3-15.39L375,270.5l1.81-12.3s3.17-14.36,2.19-15.77h0s-.81-14.82-1.66-18.37c-.37-1.58-.27-5.15-.05-8.61a1.72,1.72,0,0,0,.4-1.78,4.36,4.36,0,0,0-.23-.6v-.19a28,28,0,0,1,5.45-1.85c3-.59,2.26-2.15,2.26-2.15s.69-1.33,1.13-2.14.08-8,0-8.59c0-.24-.21-1.56-.42-3.06,1-.69,2.22-1.54,3.6-2.35C392,191.19,391.45,189.56,391.24,189.13ZM351.87,291.81s-2.26,5.78-1.36,7.25-.15,7-.15,7l-.75,8.14s-2.11,15.11-1.36,18.66c.59,2.79.81,11.11.88,14.58h0l-.15.08-.1.05c.35-1.37.2-4.13-1.53-9.69l-.15-23s-.26-26.51,1.83-29.47,2.84-8,2.84-8-.46,7.26-.75,9.18S351.87,291.81,351.87,291.81Zm-4.22,57.05-.06.14-.11-.15Z"/><path class="cls-3" d="M370.74,358a41,41,0,0,1-9.29,1c-1.77-.22-4.12-1.12-4.79-2.29s-4.41-2.95-5.42-2.84a3.55,3.55,0,0,1-1.21-.17,14.66,14.66,0,0,1-2-.78,3.76,3.76,0,0,1,.05-1.53,1.32,1.32,0,0,1,.09-.3,2.64,2.64,0,0,1,1.36-1.52l.14-.07a4.48,4.48,0,0,1,.88-.27c3.18-.61,16.31.62,16.31.62s.37.66.88,1.48a11.12,11.12,0,0,0,2.14,2.71,4.2,4.2,0,0,1,1.38,2.38C371.38,357.1,371.27,357.76,370.74,358Z"/><path class="cls-4" d="M370.74,358a40.93,40.93,0,0,1-9.28,1c-1.78-.22-4.13-1.12-4.8-2.29s-4.41-2.95-5.41-2.84a9.19,9.19,0,0,1-3.24-.95,3.34,3.34,0,0,1,.66-2.72l2,1.44s5.41,1.68,6.42,3.24,2.83,2.43,5.48,2.58a51.68,51.68,0,0,0,8.64-1C371.38,357.1,371.27,357.76,370.74,358Z"/><path class="cls-3" d="M351.36,360a53.56,53.56,0,0,0-7.16.34c-3.8.44-6.7-1.22-7.21-1.9a16.9,16.9,0,0,0-5.14-3.81c-1-.38-1.21-1.62-1.17-2.78v-.19a12.22,12.22,0,0,1,.32-2.17l15.76-.34,1.37,1.85.21.28.83,1.13s.38.5.87,1.22a17.23,17.23,0,0,1,2.31,4.2h0C352.85,359.75,351.36,360,351.36,360Z"/><path class="cls-4" d="M351.36,360a53.56,53.56,0,0,0-7.16.34c-3.8.44-6.7-1.22-7.21-1.9a16.3,16.3,0,0,0-5.14-3.8c-1-.38-1.21-1.62-1.17-2.78,1.13.26,3.49.94,4.42,2.11,1.21,1.56,3.39,4.19,6.48,4.35,2.49.14,8.57-.31,10.8-.49C352.85,359.75,351.36,360,351.36,360Z"/><path class="cls-4" d="M349.48,349.51c-.18,1.36-.74,1.72-1.15,1.8a.76.76,0,0,1-.3,0l-.16,0s-14.15,3.13-17,.59a1.34,1.34,0,0,1-.2-.21,12.22,12.22,0,0,1,.32-2.17l15.76-.34,1.37,1.85a2.63,2.63,0,0,1,1.36-1.51Z"/><path class="cls-4" d="M367.71,351.27c-.32.35-.58.55-.75.48-.74-.3-6.85-1.34-8.79-.45s-8.51.15-8.51.15,0-.78,0-2a3.37,3.37,0,0,1,.87-.27c3.18-.61,16.32.61,16.32.61S367.2,350.45,367.71,351.27Z"/><path class="cls-5" d="M377,259.66,375.16,272l-2.08,8.2-3,15.49v16.41s1.93,32.63,1.19,33.52-3.58,6-4.33,5.67-6.85-1.34-8.79-.45-8.5.15-8.5.15-.15-12.66-.9-16.24S350.11,316,350.11,316l.75-8.2s1-5.51.15-7,1.34-7.29,1.34-7.29-1-3.29-.74-5.22.74-9.24.74-9.24-.74,5.07-2.81,8-1.81,29.66-1.81,29.66l.15,23.08c3.73,12.23,0,11,0,11s-14.15,3.13-17,.6-2-18.5-2-18.5-.3-12.81.89-16.68,1.57-18.18,1.57-18.18-.08-28.62,0-30.55c0-1.62,0-16.12,0-20.65v-1.34l1.71-4.25,20.25-2.53h9.68s14.58,3.42,16.09,4.9l.08.09C380.08,245.21,377,259.66,377,259.66Z"/><path class="cls-4" d="M352.36,324.63s4.46,10.73,6.56,11.48S352.36,324.63,352.36,324.63Z"/><path class="cls-4" d="M354,340.43s15,.74,14.89,2.38S354,340.43,354,340.43Z"/><path class="cls-4" d="M333.88,336.14c.6.56,11.48,1.62,10.58,2.65s-9.68,3-9.68,3Z"/><path class="cls-4" d="M332.1,317.63c0,.44,2.23,14.3,2.83,14.9s5.52,1.19,5.52,1.19Z"/><path class="cls-6" d="M348.32,128.19c-2.14,2.39-3.06,5.77-5.55,7.79-1.51,1.21-3.42,1.79-5.18,2.62s-3.5,2.08-4,4c-.58,2.1.54,4.25,1.14,6.36a26.53,26.53,0,0,1,.68,6.73c0,2.76.09,5.52,0,8.28-.08,4.29-.43,8.79-2.71,12.43,8.23,2.62,17,3,25.62,3.31a25.9,25.9,0,0,0,5-.12c1.43-.29,2.85-.64,4.24-1.07a32.6,32.6,0,0,1,8.45-1.09,14.37,14.37,0,0,0,3.71-.24,3.66,3.66,0,0,0,2.67-2.36,4.37,4.37,0,0,0-.68-3.19c-1-1.76-2.43-3.24-3.51-5a13.72,13.72,0,0,1-.88-12.31c1-2.22,2.5-4.16,3.44-6.38a13.5,13.5,0,0,0-2.71-14.29c-3.27-3.35-8-4.64-12.45-5.33a11.33,11.33,0,0,1-5.24-2,9,9,0,0,0-6-1.16A9.83,9.83,0,0,0,348.32,128.19Z"/><g class="cls-7"><path d="M377.45,152a13.36,13.36,0,0,0-1,6.18,13.28,13.28,0,0,1,1-4.39c.95-2.22,2.49-4.16,3.43-6.39a12.85,12.85,0,0,0,.94-5.88,12.5,12.5,0,0,1-.94,4.09C379.94,147.82,378.4,149.75,377.45,152Z"/><path d="M335.51,155.1c0,1.59.05,3.18.05,4.77q0-3.28-.05-6.55a26.21,26.21,0,0,0-.68-6.74,32.62,32.62,0,0,1-1.22-4.19c-.36,2,.67,4,1.22,6A26.09,26.09,0,0,1,335.51,155.1Z"/><path d="M379.86,174.83a13.6,13.6,0,0,1-3.71.25,32.44,32.44,0,0,0-8.44,1.06c-1.4.43-2.81.78-4.24,1.07a26,26,0,0,1-5,.13c-8.34-.33-16.8-.68-24.79-3.07a15.06,15.06,0,0,1-.81,1.54c8.23,2.62,17,3,25.62,3.31a25.12,25.12,0,0,0,5-.13,40.87,40.87,0,0,0,4.23-1.06,31.93,31.93,0,0,1,8.42-1.07,13.92,13.92,0,0,0,3.71-.26,3.67,3.67,0,0,0,2.68-2.34,3.34,3.34,0,0,0,0-1.69A3.81,3.81,0,0,1,379.86,174.83Z"/></g><path class="cls-8" d="M367.86,170c-.3.67-1.56,6.48-1.86,7.08s-1.94,10.12-2.09,10.66-10.78-2.24-10.78-2.24l-6.41-5.37-6.58-6.54s-.19-5.91,4.65-7.81a7.07,7.07,0,0,1,1-.31c5.88-1.42,5.29-19.3,5.29-19.3l12.07,5.21s-2.24,10.44-2.16,12.45c0,.68.55,1.1,1.24,1.35a9.68,9.68,0,0,0,3.3.36S368.16,169.36,367.86,170Z"/><path class="cls-5" d="M389.47,189.62l1.71.45s1.27,1.93-1.71,3.73a51.39,51.39,0,0,0-5.44,3.8l-8.81,2.68-1.7-5.33,8.2-6.22Z"/><path class="cls-4" d="M389.47,189.62l1.71.45s1.27,1.93-1.71,3.73a51.39,51.39,0,0,0-5.44,3.8l-8.81,2.68-1.7-5.33,8.2-6.22Z"/><path class="cls-5" d="M325.18,194.77l-3.43,3.35s6.18,7.15,10.94,7.6,7.82-5.44,7.82-5.44l-4.11-6.48Z"/><path class="cls-4" d="M325.18,194.77l-3.43,3.35s6.18,7.15,10.94,7.6,7.82-5.44,7.82-5.44l-4.11-6.48Z"/><circle class="cls-4" cx="357.73" cy="145.97" r="11.92"/><circle class="cls-8" cx="357.73" cy="145.07" r="11.92"/><path class="cls-4" d="M379.11,245.13a38.15,38.15,0,0,0-8,1.79c-4.46,1.48-39.37,0-39.86,0v-1.34l1.71-4.24,20.25-2.54h9.69s14.58,3.43,16.09,4.9C379.08,244.6,379.11,245.13,379.11,245.13Z"/><path class="cls-4" d="M367.86,170c-.3.67-1.56,6.48-1.86,7.08s-1.94,10.12-2.09,10.66-10.78-2.24-10.78-2.24l-6.41-5.37-6.58-6.54s-.19-5.91,4.65-7.81l12,13.84,5.42-14.44a9.68,9.68,0,0,0,3.3.36S368.16,169.36,367.86,170Z"/><path class="cls-5" d="M356.83,180.1l-12.32-14.18a5.18,5.18,0,0,0-4.89-.36c-2.76,1.19-6.18,2.16-7.08,2.76a54.84,54.84,0,0,0-4.24,4.28l10,26.13-4.4,17.2s.68,8.8-1,12a13.13,13.13,0,0,0-1.41,6.63s.52,4.25-.08,6.48a10.69,10.69,0,0,0-.07,4.54s35.39,1.49,39.86,0a38.13,38.13,0,0,1,8-1.78s-.81-14.91-1.62-18.48.67-17.21.67-17.21l-1-14.61,5.81-15s-3.14-9.61-6.42-10.57a63.67,63.67,0,0,1-7.23-2.09,25.28,25.28,0,0,0-5-1.27l-2,.66Z"/><rect class="cls-4" x="337.88" y="199.6" width="43.41" height="28.37" rx="1.19" transform="translate(121.9 558.04) rotate(-86.11)"/><rect class="cls-6" x="338.77" y="198.71" width="43.41" height="28.37" rx="1.19" transform="translate(123.62 558.1) rotate(-86.11)"/><rect class="cls-3" x="341.79" y="200.77" width="37.35" height="24.71" transform="translate(123.37 558.3) rotate(-86.11)"/><rect class="cls-4" x="358.77" y="196.85" width="5.63" height="20.19" transform="translate(129.89 553.19) rotate(-86)"/><rect class="cls-4" x="367.95" y="226.9" width="2.93" height="3.2" transform="translate(116.38 581.57) rotate(-86.11)"/><rect class="cls-4" x="358.22" y="212.8" width="2.93" height="16.4" transform="translate(114.8 564.86) rotate(-86.11)"/><rect class="cls-6" x="360.08" y="187.07" width="4.51" height="17.07" transform="translate(142.6 543.84) rotate(-86.11)"/><rect class="cls-4" x="360.08" y="187.07" width="4.51" height="17.07" transform="translate(142.6 543.84) rotate(-86.11)"/><path class="cls-4" d="M358.32,244.31s-.15,22.06-6,34.72c0,0,7-16.69,7-17.36s3.87-7.67,2.83-9.76S358.32,244.31,358.32,244.31Z"/><path class="cls-4" d="M358.64,142.09a8.21,8.21,0,0,1,1.35-5.55,6.84,6.84,0,0,0,5.29,7.21.9.9,0,0,1-.26-1,30.37,30.37,0,0,0,2.41,2.88,3.2,3.2,0,0,0,3.45.73c1.5-.81,1.52-2.95,1.13-4.61a21.61,21.61,0,0,0-5-9.5,6.57,6.57,0,0,0-5.22-2.66,12.86,12.86,0,0,0-6.75,1.06,17.74,17.74,0,0,0-3.24,2.26l-5.67,4.63a5.15,5.15,0,0,0-1.38,1.45,4,4,0,0,0-.43,1.52,8.18,8.18,0,0,0,3.82,7.72,6,6,0,0,1,3.61-5.67,1.57,1.57,0,0,1,.57,1.17l1.19-2.13a2.36,2.36,0,0,1,.81-1,2.11,2.11,0,0,1,2.28.64,4,4,0,0,0,2.09,1.38l0-3.17"/><path class="cls-6" d="M358.64,141.64a8.21,8.21,0,0,1,1.35-5.55,6.84,6.84,0,0,0,5.29,7.21.9.9,0,0,1-.26-1,30.37,30.37,0,0,0,2.41,2.88,3.18,3.18,0,0,0,3.45.73c1.51-.81,1.52-2.94,1.13-4.6a21.58,21.58,0,0,0-5-9.51,6.6,6.6,0,0,0-5.22-2.65,12.87,12.87,0,0,0-6.75,1.05,18.67,18.67,0,0,0-3.24,2.27l-5.67,4.62a5.4,5.4,0,0,0-1.37,1.45,3.85,3.85,0,0,0-.43,1.52,8.17,8.17,0,0,0,3.81,7.72,6.05,6.05,0,0,1,3.62-5.67,1.56,1.56,0,0,1,.56,1.17l1.19-2.12a2.36,2.36,0,0,1,.81-1,2.11,2.11,0,0,1,2.29.64,4.14,4.14,0,0,0,2.08,1.38l0-3.18"/><path class="cls-8" d="M364.28,216.82C363.24,216.3,346,219,346,219a98.22,98.22,0,0,0-9.69-1.93c-6.85-1.13-7.29-7.83-7.29-7.83l-.75-13.41,2.32-2,9.9,6.48a30.81,30.81,0,0,1,0,3.87,5.39,5.39,0,0,0-.33,1.21.43.43,0,0,0,.33.37c.67.17,9.84,1.65,9.84,1.65s21.23-1.46,26.52,5.7a5.34,5.34,0,0,1,.94,1.76C379.13,219.72,365.23,217.29,364.28,216.82Z"/><path class="cls-4" d="M377.83,214.86c-.81.36-1.31.62-1.31.62s-7.6-.22-11.87-1.77a27.74,27.74,0,0,0-9.45-1.27s-17.79-3.06-15-7.06a.39.39,0,0,0,.33.36c.67.17,9.83,1.66,9.83,1.66s21.24-1.46,26.53,5.69A5.57,5.57,0,0,1,377.83,214.86Z"/><path class="cls-8" d="M385.22,191.27s1,7.37,1.12,8,.45,7.82,0,8.64-1.12,2.16-1.12,2.16.74,1.56-2.24,2.16a30.45,30.45,0,0,0-6.48,2.39s-7.6-.23-11.84-1.79a27.47,27.47,0,0,0-9.46-1.27s-22.58-3.87-12.9-8.6a14.89,14.89,0,0,1,16.54,1.67l10.81-.67s4-2.46,5.14-2.23a4.18,4.18,0,0,0,2.31-.37l.07-7.83Z"/><path class="cls-4" d="M330.45,173.16l-2.17-.11-6.55,25.51s7.08-1.79,10.13,0,8.64,2.16,8.64,2.16l-2.09-20.34Z"/><path class="cls-5" d="M330.45,172.71l-2.17-.11-6.55,25.51s7.08-1.79,10.13,0,8.64,2.16,8.64,2.16l-2.09-20.34Z"/><path class="cls-4" d="M380,178.3l3,.67s7.6,10.94,8.2,11.55-2.84,2.83-4.25,2.83-8.34.81-10.35,2.69-1.18-7.55-1.18-7.76,2.5-6.16,2.5-6.16Z"/><path class="cls-5" d="M380,177.86l3,.66s7.6,11,8.2,11.55-2.84,2.84-4.25,2.84-8.34.81-10.35,2.68-1.18-7.54-1.18-7.76,2.52-6.18,2.52-6.18Z"/><g class="cls-7"><path d="M360,136.12a5.78,5.78,0,0,1,0-.93,8.36,8.36,0,0,0-1.25,3.06v1.13c0,.66,0,1.32,0,2h-.06v.31a1.72,1.72,0,0,0,0-.32,4.23,4.23,0,0,1-2-1.35c-.6-.54-1.55-1.06-2.29-.64a2.36,2.36,0,0,0-.81,1l-1.2,2.12a1.56,1.56,0,0,0-.56-1.17,6.07,6.07,0,0,0-3.62,5.67,8.22,8.22,0,0,1-3.84-6.45,8.19,8.19,0,0,0,3.84,7.34,6.07,6.07,0,0,1,3.62-5.67,1.58,1.58,0,0,1,.56,1.18l1.19-2.13a2.36,2.36,0,0,1,.81-1,2.14,2.14,0,0,1,2.29.65,4.06,4.06,0,0,0,2.08,1.37c0-1,0-2.07,0-3.1A8.21,8.21,0,0,1,360,136.12Z"/><path d="M358.6,140.2c0-.27,0-.55.09-.81l0-1.12A8.36,8.36,0,0,0,358.6,140.2Z"/><path d="M370.88,145a3.17,3.17,0,0,1-3.45-.72,30.37,30.37,0,0,1-2.41-2.88.91.91,0,0,0,.26,1,1.05,1.05,0,0,1-.24-.06,27.08,27.08,0,0,0,2.39,2.83,3.21,3.21,0,0,0,3.45.73c1.11-.59,1.43-2,1.33-3.33A2.78,2.78,0,0,1,370.88,145Z"/><path d="M365,142.34a6.9,6.9,0,0,1-5-6,6.84,6.84,0,0,0,5.31,7A.89.89,0,0,1,365,142.34Z"/></g><path class="cls-9" d="M559.52,208.53s-1.6-.22-1.6-2.54a36.62,36.62,0,0,0-1.14-6.67h0s-1-7.56-2.35-8.76-3.12-8.24-3.12-8.24-.3-3.82-.91-4.64a39.38,39.38,0,0,1-2.66-5.7c-1.22-2.88-6.29-4.84-6.29-4.84s-9.19-5.33-11.79-7.07h0a4.67,4.67,0,0,1-.67-.5c-.45-.6-2.43-.61-2.43-.61-.2-1.31-.4-2.8-.47-4.16v-.44a14,14,0,0,0,6.16-7.62c0-.15.09-.31.14-.47a1.33,1.33,0,0,0,.81-.71,14,14,0,0,1,.53-1.62,6,6,0,0,1,1.5-1.32,5.7,5.7,0,0,0,1.56-4.61c0-1.36-.26-2.73-.18-4.08a1.34,1.34,0,0,1,0-.34c0-.2.05-.4.08-.6.2-1,.64-2,.88-2.94a3.8,3.8,0,0,0-.3-3c-.83-1.26-2.56-1.51-4.08-1.62-1.72-.15-3.24,0-4.36-1.39a15.87,15.87,0,0,0-1.73-2.09c-.23-.21-2.43-1.56-2.43-1.64a9.82,9.82,0,0,0-6.89-.54c-1.15.34-2.22.88-3.38,1.15-2.5.59-5.37,0-7.49,1.38a8.79,8.79,0,0,0-2.56,3.36c-.54,1-1.09,2.06-1.64,3.09a20.12,20.12,0,0,0-2.19,5.31,8.57,8.57,0,0,0-.15,1.24h0V136a1.84,1.84,0,0,0,0,.41,1.42,1.42,0,0,0,0,.25c0,.08,0,.27.06.4a5.5,5.5,0,0,0,.12.54.81.81,0,0,0,.07.22c0,.08.09.28.14.41s.06.14.09.21.14.28.21.41l.09.15a4.81,4.81,0,0,0,.37.55c.86,1.08,2.14,1.77,3.09,2.78v.45a13.82,13.82,0,0,0,6.35,11.3c0,.16,0,.31,0,.47a24.17,24.17,0,0,1-.05,3.61,1.66,1.66,0,0,0-1.34-.6,1.8,1.8,0,0,0-.52,0l0,0h0v0c-.89.22-2,1.15-3,3.78,0,0-3.19,3.6-5.62,3.45s-8.58,3.74-8.58,3.74-6,3.9-7.29,7.87A53.94,53.94,0,0,1,482,183l-7.44,15.28h0l-1.36,12.15a56.09,56.09,0,0,1,.61,6.21c-.15.83,3.11,8.24,3.11,8.24s10.79,19,15.19,19.92l.32-.22a3.23,3.23,0,0,0,.59.22l.91-.64a9.59,9.59,0,0,1-.07,2.14c-.61,1.87.23,14.08,1.29,16.47s.68,33.78.68,33.78l-.15,2.77a1,1,0,0,0,0,.24l0,.66.11,0a7.62,7.62,0,0,1-.11,2.65,29.1,29.1,0,0,0-.53,4.64s-3,19.39-1.6,23.29,2.66,8.16,2.66,8.16,1.52,4.86.08,5.67-5.54,2.25-4.71,4.27,3.69,6.89,4.12,7.62l0,.4-.6,6.46a8.13,8.13,0,0,0,.69,2.46,4.22,4.22,0,0,0,4.33,2.7c.4,0,.87-.07,1.32-.13a57.23,57.23,0,0,0,9.84-2.56,3.59,3.59,0,0,1-.76-.64h0a2.2,2.2,0,0,1-.68-1.62c.06-1.18-2.13-6.77-2.69-8.15l-.12-.31s5-5.24,4.18-9.89c0,0-5.55-3.24-3.72-5a57.52,57.52,0,0,0,5.09-6.88s.15-19.1,0-21.95a23.47,23.47,0,0,1,.28-5.92c.06-.3.13-.58.21-.87a52.79,52.79,0,0,0,7.64.58c.93,0,1.88,0,2.83-.06,0,.27,0,.56,0,.88.21,4.73.6,13,.92,16.11.45,4.41,3,16.32,3,16.32s-4.78,3.07.84,10.64c0,0,0,2.74-.38,3.14h0a36.07,36.07,0,0,0-1,3.95,7,7,0,0,0,0,3.62c.91,1.79,6.38,1.64,6.38,1.64h0l.13,0a7.83,7.83,0,0,1,5.79,1.74c2.08,1.67,10,.94,14.23.41,1.68-.22,2.79-.41,2.79-.41a1.44,1.44,0,0,0,.06-.58h0c0-1.05-.87-3.35-6.44-5.4,0,0-5.24-3.53-5.17-6.6h-.07s-2.05-7.49-1.21-8.1-1.68-8.91-1.68-8.91-1.43-13.93-1.52-14.9a9,9,0,0,1,.38-2.47l-.38-7.65s-.07-2.54,0-3.36a13.83,13.83,0,0,0-.17-2.14c0-.29-.07-.58-.11-.88,2-.49,3.24-.95,3.24-.95L543,274.65c1.67-3.24,2-10.35,2-15.39,0-3.24-.14-5.64-.14-5.64l2.28-3.72s.52-4.45-.31-5.43a.94.94,0,0,1,.1-1.28,3.54,3.54,0,0,1,.51-.35l-.06-.09a4.67,4.67,0,0,1,.51-.36s-.81-1.26-.09-1.79c.69.46,1.29.83,1.75,1.1,0,.29-.06.46-.06.46l.19-.4.72.4s3.57-7.11,3.5-8.16,2.43-5.47,2.43-5.47.3-2.32,1.67-3.29,1.06-8,1.06-8,.38-3.67,1.29-5.16S559.52,208.53,559.52,208.53Zm-68.35-3.12.07,1.69-.7-1.11Z"/><path class="cls-3" d="M550.59,239.08l-.87,3.73s-7-3.58-8.27-8.12,2.11-6.27,2.11-6.27l6.53,2.77Z"/><path class="cls-4" d="M550.59,239.08l-.87,3.73s-7-3.58-8.27-8.12,2.11-6.27,2.11-6.27l6.53,2.77Z"/><path class="cls-3" d="M511.27,365.89s-6.48,2.38-10.94,2.68a4.15,4.15,0,0,1-4.24-2.69,8.22,8.22,0,0,1-.68-2.43L496,357l.31-3.42,9.46-2.46,1.34,4.1.13.31c.53,1.37,2.7,6.94,2.63,8.1a2.23,2.23,0,0,0,.66,1.62A3.89,3.89,0,0,0,511.27,365.89Z"/><path class="cls-3" d="M555.51,362.63a1.61,1.61,0,0,1,0,.58s-13.86,2.31-16.7,0A7.51,7.51,0,0,0,533,361.5s-5.37.14-6.26-1.62a7,7,0,0,1-.05-3.59,35.27,35.27,0,0,1,.94-3.94l.22-.17,1.27-1,14.94-.45h.11c-.07,3.06,5.07,6.56,5.07,6.56C554.66,359.3,555.47,361.58,555.51,362.63Z"/><path class="cls-4" d="M555.52,362.63a1.88,1.88,0,0,1-.06.58s-13.86,2.31-16.69,0A7.55,7.55,0,0,0,533,361.5s-5.37.14-6.27-1.62a7.2,7.2,0,0,1,0-3.6c2.07.21,5.33.72,6.61,2,1.93,1.87,5.21,3.73,7.22,3.88C542.06,362.21,551.5,362.51,555.52,362.63Z"/><path class="cls-4" d="M511.27,365.89s-6.48,2.38-10.94,2.68a4.15,4.15,0,0,1-4.24-2.69c1.65.56,3.94,1.14,5.14.61,1.43-.64,6.48-1,9.32-1.22A3.28,3.28,0,0,0,511.27,365.89Z"/><path class="cls-10" d="M520.88,174c-5.34-2.08-12.22-8.94-10.5-12.15a7.24,7.24,0,0,0,.67-2.58,24.58,24.58,0,0,0,.05-3.64,49.63,49.63,0,0,0-.72-5.94s16.69.38,15.72,2.84a8.77,8.77,0,0,0-.25,3.37c.08,1.4.28,3,.49,4.33.28,1.84.58,3.24.58,3.24s-1,1.43-1.62,1.51S528.56,176.94,520.88,174Z"/><path class="cls-4" d="M507.22,355.55l-.12.14c-5-6-11,1.49-11,1.49L496,357l.3-3.42,9.47-2.46,1.34,4.1Z"/><path class="cls-4" d="M544.13,351.14s-3.64-.07-5.59,1.64-11.34.37-10.93,0a1.35,1.35,0,0,0,.21-.62l1.27-1L544,350.7C544.09,351,544.13,351.14,544.13,351.14Z"/><path class="cls-5" d="M513.43,303.75a11.54,11.54,0,0,0-.61,2.08,23.7,23.7,0,0,0-.28,5.89c.15,2.84,0,21.84,0,21.84a58.47,58.47,0,0,1-5,6.85c-1.79,1.79,3.65,5,3.65,5,.81,4.63-4.1,9.84-4.1,9.84-5-6-11,1.49-11,1.49s-3.28-5.67-4.1-7.7,3.2-3.42,4.61-4.25-.07-5.67-.07-5.67-1.19-4.24-2.61-8.12,1.57-23.17,1.57-23.17a29.56,29.56,0,0,1,.52-4.62,8,8,0,0,0,.11-2.63c0-.29-.05-.53-.07-.7a2.24,2.24,0,0,0,0-.25l.06-.09,2-3.78S514.4,301.37,513.43,303.75Z"/><path class="cls-5" d="M544.13,350.69s-3.64-.07-5.59,1.62-11.34.38-10.93,0,.37-3.12.37-3.12c-5.52-7.53-.81-10.59-.81-10.59s-2.46-11.84-2.91-16.24c-.31-3.06-.69-11.34-.9-16-.09-2-.14-3.42-.14-3.42l4.46-.89.58-.11,10.86-2.19s.3,2,.5,3.68a15.31,15.31,0,0,1,.17,2.14c-.07.81,0,3.35,0,3.35l.37,7.6a8.81,8.81,0,0,0-.37,2.45c.08,1,1.49,14.83,1.49,14.83s2.46,8.27,1.62,8.87S544.13,350.69,544.13,350.69Z"/><path class="cls-4" d="M526.1,152.51a8.81,8.81,0,0,0-.25,3.37,13.88,13.88,0,0,1-14.75-.27,49.22,49.22,0,0,0-.72-5.93S527.07,150.05,526.1,152.51Z"/><path class="cls-10" d="M532.54,143.57a13.86,13.86,0,1,1-27.71.33v-.33a13.86,13.86,0,1,1,27.72,0Z"/><path class="cls-4" d="M520.88,174c-5.34-2.08-12.22-8.94-10.5-12.15a7.24,7.24,0,0,0,.67-2.58l7.32,6,4.52,3.71,3.45-8.76c.28,1.84.58,3.24.58,3.24s-1,1.43-1.62,1.51S528.56,176.94,520.88,174Z"/><polygon class="cls-5" points="539.81 200.56 533.7 303.23 525.73 303.75 505.09 244.22 508.47 173.55 509.19 158.61 518.37 166.15 522.89 169.87 526.44 160.85 533.03 166.59 539.81 200.56"/><path class="cls-4" d="M513.43,303.75a11.54,11.54,0,0,0-.61,2.08,59.08,59.08,0,0,1-16.73-5.22l-.11-.06,0-.65v-.34l2-3.78S514.4,301.37,513.43,303.75Z"/><path class="cls-4" d="M527.81,305.84a39.38,39.38,0,0,1-4.48.52c-.08-2-.14-3.42-.14-3.42l4.49-.91Z"/><path class="cls-4" d="M539.64,303.41a31.35,31.35,0,0,1-11.31,1.07l-.05-2.56,10.86-2.19S539.43,301.74,539.64,303.41Z"/><path class="cls-4" d="M528.26,305c-16.61,2.83-31.81-5.29-31.81-5.29l.14-2.76s.38-31.22-.67-33.61-1.85-14.52-1.26-16.37-2.16-29.8-2.16-29.8l-.45-11.34-16.31-6.63L483,184a54.83,54.83,0,0,0,2.53-6.56c1.27-3.94,7.15-7.82,7.15-7.82s6-3.87,8.42-3.73,5.51-3.42,5.51-3.42c2.31-5.89,4.4-3.24,4.4-3.24a5.39,5.39,0,0,1-.11.87c-.81,6.46,13.1,26.87,13.3,27.23h0l1.34,32.27,1.34,40.82Z"/><path class="cls-3" d="M527.81,305c-16.6,2.83-31.81-5.29-31.81-5.29l.15-2.76s.37-31.22-.67-33.61-1.86-14.53-1.27-16.4S492,217.11,492,217.11l-.45-11.34-16.31-6.63,7.29-15.2a54.83,54.83,0,0,0,2.53-6.56c1.27-3.93,7.18-7.81,7.18-7.81s6-3.88,8.41-3.73,5.53-3.42,5.53-3.42c2.31-5.89,4.86-3.24,4.86-3.24,0,.28-.25.4-.12.87,1.78,6.26,12.65,26.87,12.85,27.23h0l1.34,32.27,1.32,40.84Z"/><path class="cls-4" d="M523.34,188.2c-1.79-.75-11.25-11.55-11.25-11.55v-2.46c-.34-.81-2.39-.32-4.05.25l.71-14.93.81.67C511.33,166.44,523.14,187.83,523.34,188.2Z"/><path class="cls-3" d="M523.79,187.3c-1.79-.74-11.25-11.54-11.25-11.54V173.3c-.35-.81-2.39-.32-4,.25l.7-14.92.81.67C511.78,165.55,523.59,186.94,523.79,187.3Z"/><path class="cls-4" d="M496.45,241.17c.22,0,11.54-1.19,11.54-1.19s6.86,13.49,6.41,16.76-1.26,6.19-4,5.67-14.84.41-14.84.41Z"/><path class="cls-3" d="M496,240.27c.22,0,11.55-1.19,11.55-1.19s6.85,13.51,6.41,16.75-1.27,6.18-4,5.67-14.84.41-14.84.41Z"/><path class="cls-10" d="M504.53,234s10.39,5.59,10.62,7.29-5.29-.74-6.48-1a15,15,0,0,0-2.39-.38l-7.94.22Z"/><circle class="cls-4" cx="520.44" cy="187.8" r="1.09"/><circle class="cls-6" cx="520.44" cy="187.35" r="1.09"/><circle class="cls-4" cx="522.45" cy="235.13" r="1.09"/><circle class="cls-6" cx="522.45" cy="234.69" r="1.09"/><circle class="cls-4" cx="521.53" cy="211.47" r="1.09"/><circle class="cls-6" cx="521.53" cy="211.02" r="1.09"/><path class="cls-3" d="M546.74,239.61s.74,1.11,0,1.62.07,1.79.07,1.79-1.86,1.08-1,2.07.3,5.4.3,5.4l-2.24,3.72s.14,2.39.14,5.61c0,5-.29,12.1-1.93,15.32l.22,26.46s-7.83,2.86-14.38,2l-1-42.44s1.41-24.07,1.94-28.69a48.45,48.45,0,0,0,.37-7.23,80.37,80.37,0,0,0-1-10.57s-.81-14.53-.89-18.55c0-1.93.06-7.54.17-12.88.13-5.83.27-11.34.27-11.34l-1.48-11.7s1.48-.14,1.93.45a4.66,4.66,0,0,0,.65.5h0c2.55,1.72,11.57,7,11.57,7s5,2,6.18,4.82a43.75,43.75,0,0,0,2.6,5.67c.58.81.9,4.62.9,4.62s1.72,7,3.06,8.19,2.3,8.72,2.3,8.72l-11.84,9.32s-1,15.49-1.27,16.09S546.74,239.61,546.74,239.61Z"/><path class="cls-3" d="M547.19,239.61s.74,1.11,0,1.62.06,1.79.06,1.79-1.85,1.08-1,2.07.3,5.4.3,5.4l-2.22,3.72s.13,2.39.14,5.61c0,5-.29,12.1-1.93,15.32l.22,26.46s-7.83,2.86-14.38,2l-1-42.44s1.42-24.07,1.94-28.69a47.15,47.15,0,0,0,.37-7.23,80.37,80.37,0,0,0-1-10.57s-.81-14.53-.89-18.55c0-1.93.06-7.54.18-12.88.12-5.83.26-11.34.26-11.34l-2-11.86s2,0,2.4.61a4.49,4.49,0,0,0,.65.5h0c2.55,1.72,11.57,7,11.57,7s5,2,6.19,4.82a46.78,46.78,0,0,0,2.6,5.67c.58.81.9,4.62.9,4.62s1.72,7,3.06,8.19,2.31,8.72,2.31,8.72l-11.85,9.32s-1,15.49-1.27,16.09S547.19,239.61,547.19,239.61Z"/><path class="cls-4" d="M533,175.32l1.07,3.12-5.63,5.67c.12-5.84.27-11.34.27-11.34l-2-11.86s2,0,2.4.61a4.49,4.49,0,0,0,.65.5h0l4.79,13.8Z"/><path class="cls-3" d="M532.54,174.43l1.07,3.11L528,183.21c.13-5.84.27-11.34.27-11.34l-2-11.86s2,0,2.4.6a3.51,3.51,0,0,0,.65.5h0l4.81,13.82Z"/><path class="cls-4" d="M532.54,143.57a14,14,0,0,1-.68,4.3.64.64,0,0,1-.44-.11c-.11-3.64-1.9-7.07-4.1-10a10.63,10.63,0,0,0-2.23-2.31,4.37,4.37,0,0,0-3-.86c-1.22.17-2.29,1-3.52,1.1-1.62.13-3.07-1-4.68-1a4.54,4.54,0,0,0-3.43,1.6,9.29,9.29,0,0,0-1.85,3.41,20.37,20.37,0,0,0-1,5.9c0,1.13-.13,2.55-1.18,3a6,6,0,0,0-1.53-4.62l0,0v-.33a13.86,13.86,0,1,1,27.72,0Z"/><path class="cls-11" d="M524.44,121.56a9.54,9.54,0,0,0-6.73-.52c-1.12.33-2.18.87-3.32,1.14-2.43.59-5.26-.05-7.35,1.37a8.76,8.76,0,0,0-2.5,3.34L502.92,130a19.86,19.86,0,0,0-2.14,5.27,6.72,6.72,0,0,0,1,5.44c.85,1.08,2.13,1.77,3.06,2.79a6.08,6.08,0,0,1,1.52,4.63c1.05-.4,1.16-1.83,1.18-3a20.15,20.15,0,0,1,1-5.9,9.5,9.5,0,0,1,1.84-3.41,4.62,4.62,0,0,1,3.44-1.6c1.62.06,3.08,1.18,4.68,1,1.21-.1,2.29-.93,3.52-1.09a4.37,4.37,0,0,1,3,.85,10.58,10.58,0,0,1,2.22,2.31c2.21,2.92,4,6.33,4.11,10,.46.34,1.12-.1,1.35-.62a12.74,12.74,0,0,1,.52-1.62,6.12,6.12,0,0,1,1.46-1.31c1.27-1.09,1.58-2.92,1.53-4.59a23.14,23.14,0,0,1,0-5c.19-1,.62-1.94.85-2.93a3.79,3.79,0,0,0-.29-3c-.81-1.25-2.51-1.5-4-1.62-1.69-.15-3.2,0-4.28-1.38a15.38,15.38,0,0,0-1.7-2.09C526.6,123,524.44,121.65,524.44,121.56Z"/><path class="cls-4" d="M480.41,207l-4.23-7.82-1.34,12.07a55.75,55.75,0,0,1,.6,6.18c-.15.83,3.05,8.2,3.05,8.2s10.58,18.85,14.9,19.82L508,235l-3.87-4.91s-1.34-.52-1.68,0c0,0-7.19-12.37-7.93-13.26a4.53,4.53,0,0,1-.6-2.69s-1.12-1.19-.74-2.31-2.14-5-2.14-5l2.31-2.16Z"/><path class="cls-3" d="M476.4,198.26l-1.11.89L474,211.22a56,56,0,0,1,.59,6.18c-.15.83,3.06,8.2,3.06,8.2s10.58,18.85,14.9,19.82L507.1,235l-3.87-4.91s-1.34-.52-1.68,0c0,0-7.19-12.37-7.93-13.26a4.45,4.45,0,0,1-.6-2.69s-1.12-1.19-.74-2.31-2.17-5-2.17-5l2.31-2.16Z"/><path class="cls-4" d="M545.77,245.55c.81,1,.3,5.41.3,5.41l-2.24,3.7s.14,2.39.14,5.61l-3.75,1.17a2.23,2.23,0,0,1-2.8-1.47,2,2,0,0,1-.1-.73l.65-20.9,8.77,3.35c-.75.52.07,1.79.07,1.79S545,244.57,545.77,245.55Z"/><path class="cls-3" d="M546.21,245.11c.81,1,.3,5.4.3,5.4l-2.22,3.7s.13,2.39.14,5.61L540.6,261a2.18,2.18,0,0,1-2.83-2.15l.65-21,8.77,3.36c-.75.52.06,1.79.06,1.79S545.4,244.12,546.21,245.11Z"/><path class="cls-10" d="M549.12,235.13s-.59,3.81-2.08,4-2.16,6.15-3.65,6-.5-5.52-.45-6.55-1.62-5.29-.37-6.26,5.21,0,5.21,0Z"/><path class="cls-4" d="M552.27,205.85l2.81-5.67a36.72,36.72,0,0,1,1.12,6.63c0,2.31,1.56,2.54,1.56,2.54s1.72,2,.81,3.5-1.26,5.14-1.26,5.14.3,7-1,8-1.64,3.28-1.64,3.28-2.46,4.4-2.39,5.44-3.42,8.12-3.42,8.12,1.71-8.79-8.27-12.59c0,0-.08-3,.67-3.8s1.9-1.21,1.17-5.33a49,49,0,0,1-.21-10.07c0-1,2.24-7.17,2.24-7.17Z"/><path class="cls-3" d="M553.52,199.37l2.45.81a36.43,36.43,0,0,1,1.13,6.63c0,2.31,1.56,2.54,1.56,2.54s1.71,2,.81,3.5S558.2,218,558.2,218s.3,7-1,8-1.62,3.28-1.62,3.28-2.46,4.4-2.38,5.44-3.43,8.12-3.43,8.12,1.71-8.79-8.27-12.59c0,0-.07-3,.67-3.8s1.91-1.21,1.18-5.33S543.1,212,543.1,211s2.23-7.17,2.23-7.17Z"/><path class="cls-4" d="M499.3,346.34s3.91-2.46,6.48-.68S499.3,346.34,499.3,346.34Z"/><path class="cls-4" d="M529.71,338.73a7.94,7.94,0,0,1,6.37,2.69C539,344.55,529.71,338.73,529.71,338.73Z"/><g class="cls-7"><path d="M534.76,142.87c-.49.44-1.13.74-1.47,1.31a14.53,14.53,0,0,0-.51,1.62c-.23.52-.89,1-1.35.62-.11-3.64-1.9-7.06-4.11-10a10.32,10.32,0,0,0-2.22-2.3,4.34,4.34,0,0,0-3-.86c-1.21.16-2.28,1-3.51,1.09-1.62.14-3.07-1-4.68-1a4.6,4.6,0,0,0-3.44,1.6,9.5,9.5,0,0,0-1.84,3.41,20.09,20.09,0,0,0-1,5.9c0,1.13-.13,2.54-1.17,3a6.76,6.76,0,0,1,0,.9c1.05-.4,1.16-1.83,1.18-3a20.37,20.37,0,0,1,1-5.9,9.33,9.33,0,0,1,1.85-3.42,4.61,4.61,0,0,1,3.43-1.6c1.62.06,3.08,1.18,4.68,1.05,1.22-.11,2.29-.93,3.51-1.1a4.39,4.39,0,0,1,3,.86,10.14,10.14,0,0,1,2.22,2.31c2.21,2.91,4,6.32,4.11,10,.46.33,1.12-.11,1.35-.63a13.86,13.86,0,0,1,.52-1.62c.33-.57,1-.87,1.47-1.3a5.75,5.75,0,0,0,1.53-4.59V139A5.33,5.33,0,0,1,534.76,142.87Z"/><path d="M504.86,142.59c-.92-1-2.2-1.71-3.05-2.8a5.92,5.92,0,0,1-1.18-3.31,6.18,6.18,0,0,0,1.18,4.2c.85,1.09,2.13,1.77,3.05,2.8a6,6,0,0,1,1.53,3.61A6,6,0,0,0,504.86,142.59Z"/><path d="M537.09,130.36c-.24,1-.66,1.93-.86,2.93a10.08,10.08,0,0,0-.12,2.05,7.48,7.48,0,0,1,.12-1.15c.2-1,.62-1.95.86-2.94a5,5,0,0,0,.14-1.67A5.32,5.32,0,0,1,537.09,130.36Z"/></g><ellipse class="cls-1" cx="221.37" cy="353.35" rx="39.46" ry="6.34"/><rect class="cls-12" x="220.1" y="231.93" width="2.54" height="57.17"/><path class="cls-6" d="M238.6,288.93l-.16,2.58-.22,3.64-.09,1.52-.23,3.64-.1,1.52-.22,3.64L235,346.81a7,7,0,0,1-7,6.57H214.72a7,7,0,0,1-7-6.6l-2.56-41.34-.23-3.64-.09-1.52-.23-3.64-.09-1.52-.23-3.64-.16-2.58a3.64,3.64,0,0,1,3.43-3.84H235a3.64,3.64,0,0,1,3.62,3.67A1.48,1.48,0,0,1,238.6,288.93Z"/><polygon class="cls-13" points="238.44 291.5 238.22 295.14 204.53 295.14 204.3 291.5 238.44 291.5"/><polygon class="cls-13" points="238.12 296.65 237.9 300.29 204.85 300.29 204.62 296.65 238.12 296.65"/><polygon class="cls-13" points="237.8 301.81 237.58 305.44 205.17 305.44 204.94 301.81 237.8 301.81"/><path class="cls-5" d="M200.44,253.36c14.79,10.7,20.95,27.43,20.95,27.43s-17.82-.61-32.61-11.31-21-27.42-21-27.42S185.63,242.66,200.44,253.36Z"/><path class="cls-14" d="M167.81,242.06s18.5,10.27,24.43,18.77,29.14,20,29.14,20"/><path class="cls-5" d="M210,231.81a35.91,35.91,0,0,1,11.41,14.92,32.56,32.56,0,0,1-29.16-21.08A35.82,35.82,0,0,1,210,231.81Z"/><path class="cls-14" d="M192.22,225.65s10.07,5.59,13.3,10.21,15.86,10.87,15.86,10.87"/><path class="cls-5" d="M233.07,246.27c-9.24,10.16-11.2,23.44-11.2,23.44s13-3.2,22.27-13.36,11.21-23.44,11.21-23.44S242.32,236.11,233.07,246.27Z"/><path class="cls-14" d="M255.35,232.91s-12,10.42-15.1,17.59-18.38,19.21-18.38,19.21"/></svg>