<svg id="ccdb08d7-40f3-45f2-8ef6-c6a673654779" xmlns="http://www.w3.org/2000/svg" xmlns:xlink="http://www.w3.org/1999/xlink" viewBox="0 0 1167.61 862.87"><defs><style>.cls-1,.cls-5{fill:#f50057;}.cls-1,.cls-4,.cls-7{opacity:0.1;}.cls-1,.cls-4{isolation:isolate;}.cls-2{fill:url(#Sfumatura_senza_nome);}.cls-3{fill:#fff;}.cls-6{fill:#3f3d56;}.cls-8{fill:#fbbebe;}.cls-9{fill:url(#Sfumatura_senza_nome_2);}.cls-10{fill:#cf6f80;}.cls-11{fill:#512e4e;}.cls-12{fill:#535461;}.cls-13{fill:#9d9cb5;}.cls-14{fill:none;stroke:#535461;stroke-miterlimit:10;stroke-width:2px;}</style><linearGradient id="Sfumatura_senza_nome" x1="481.48" y1="6.88" x2="481.48" y2="584.58" gradientTransform="matrix(1, 0, 0, -1, -15.95, 842.44)" gradientUnits="userSpaceOnUse"><stop offset="0" stop-color="gray" stop-opacity="0.25"/><stop offset="0.54" stop-color="gray" stop-opacity="0.12"/><stop offset="1" stop-color="gray" stop-opacity="0.1"/></linearGradient><linearGradient id="Sfumatura_senza_nome_2" x1="878.39" y1="-18.46" x2="878.39" y2="596.85" xlink:href="#Sfumatura_senza_nome"/></defs><path class="cls-1" d="M76.42,338.2H177.9V476.53H83.84c-.24,1.43-.48,2.85-.75,4.28H177.9V592.35a1.43,1.43,0,0,1-.47-.18c-2.67-1.06-5.33-2.18-8-3.37-.57-.26-1.13-.53-1.71-.78q-4-1.89-8-4c-.93-.49-1.86-1-2.77-1.52a166.36,166.36,0,0,1-39.9-31.06c-.35-.33-.67-.69-1-1-1.62-1.76-3.21-3.54-4.75-5.36-.58-.67-1.14-1.35-1.71-2-1.82-2.22-3.58-4.52-5.28-6.83-.26-.35-.5-.69-.75-1a148,148,0,0,1-17.2-31.1c-.14-.33-.27-.69-.4-1-1.38-3.5-2.63-7-3.71-10.67-.46-1.51-.91-3-1.29-4.57-.14-.45-.25-.91-.37-1.36-5.62-22.15-6.27-45.17-6.27-68.08v-8q.12-14,.33-28,.07-3.6.15-7.23.21-9.19.6-18.42c.06-1.7.14-3.41.23-5.1q.06-1.47.15-2.94Q76,343.44,76.42,338.2Z"/><path class="cls-1" d="M177.9,184.18H122.23a422.24,422.24,0,0,1,29.61-40.74c8.28-10.16,17-20.06,26.06-29.6Z"/><path class="cls-1" d="M177.9,188.44V333.92H76.74c0-.42.06-.85.1-1.27.09-1.15.18-2.29.28-3.44.1-1.34.23-2.68.36-4s.26-2.92.42-4.37.29-2.92.45-4.37.32-2.9.5-4.34.34-2.9.54-4.34c.15-1.19.3-2.39.47-3.59.23-1.69.47-3.38.72-5.06a4.81,4.81,0,0,1,.12-.76,349,349,0,0,1,7.44-36.52,270.78,270.78,0,0,1,12.55-37,278.47,278.47,0,0,1,18.88-36.42Z"/><path class="cls-1" d="M202.14,338.2V476.53H418.9V338.2Zm0,142.61v118.8c1.24.25,2.46.5,3.69.71,1.65.32,3.31.61,5,.86l1,.14c.66.11,1.33.2,2,.28,1.67.24,3.34.42,5,.58.78.08,1.59.14,2.38.21l1.93.14h0c1.05.08,2.09.14,3.13.18.64,0,1.28,0,1.93.07s1,0,1.52,0h5.56c.86,0,1.72,0,2.57-.08h.05a15.31,15.31,0,0,0,1.79-.07h.51a12,12,0,0,0,1.48-.06,1.93,1.93,0,0,1,.34,0c1.11-.07,2.23-.16,3.36-.26s2.2-.22,3.33-.34l2.27-.28a199.13,199.13,0,0,0,27.45-5.84c20.23-5.64,40-13.53,60.22-19.3,26.12-7.45,55-11.12,80.24-2V480.81ZM418.9,184.18V0a278.53,278.53,0,0,0-70.42,8.25C293.59,22.06,244.3,52,202.14,90.17v94h10.91v4.27H202.14V333.92H418.9V188.44H257.68v-4.28ZM697.38,122c-13.58-.48-27.08-4.77-39.3-11.42-23.34-12.69-42-32.31-62.84-48.85-43.3-34.47-97-55.28-152.09-60.44V184.18H752.56l.77-.81Zm28.19-5,29.89,32.81V108.34c-10.06,1.27-18.82,4.22-29.89,8.59Zm29.89,512.14V480.81H691.72c-.16-.63-.34-1.27-.54-1.91.19.64.36,1.28.53,1.91H443.15V588.05c2.36,1.75,4.69,3.6,7,5.46h0q3.74,3.06,7.43,6.19l2.48,2c1.19,1,2.4,2,3.6,3q3.61,2.91,7.27,5.76,1.83,1.44,3.68,2.83a501.38,501.38,0,0,0,61.64,40.31c4.82,2.69,9.69,5.28,14.59,7.81q4.89,2.52,9.85,4.94,7.44,3.63,15,7h0a550.47,550.47,0,0,0,146,42.52q16.78,2.48,33.71,3.9V629.09h1ZM443.15,188.44V333.92H755.46V188.44Zm0,149.74V476.53H755.46V338.2Zm336.55-230v46.3l38.14-41.87Q798.88,109.44,779.7,108.14Zm0,230.06V476.53h303.75V338.2Zm302.68,301.88,1.07-159.27H779.7V721.38a547.35,547.35,0,0,0,58.7-.71h.34q14-.9,27.87-2.56h.21a512.28,512.28,0,0,0,143.23-38.26m132-318.93c-1.15-2.67-2.34-5.33-3.55-8-2.26-5-4.64-9.86-7.1-14.71h-23.7V476.53h59.91c0-39.18-10-79.18-25.56-115.61ZM1107.7,480.81v137c16.87-16.17,31.14-34.68,41.4-55.84,12.35-25.49,18-53.07,18.47-81.17Zm0-182.92v36h21.48A390.21,390.21,0,0,0,1107.7,297.89Zm-206-162.6c-1.58-.61-3.17-1.22-4.76-1.8a430.48,430.48,0,0,0-51.3-15.42l-58.38,64.06h0l-1.14,1.23.75.81H994.65A444.14,444.14,0,0,0,901.7,135.29Zm99,53.15H784l-4.26,3.89V333.92h303.75v-68.6A432.41,432.41,0,0,0,1000.75,188.44Z"/><path class="cls-1" d="M177.9,261.83v72.09H76.74c0-.42.06-.85.1-1.27.09-1.15.18-2.29.28-3.44.1-1.34.23-2.68.36-4s.26-2.92.42-4.37.29-2.92.45-4.37.32-2.9.5-4.34.34-2.9.54-4.34c.15-1.19.3-2.39.47-3.59.23-1.69.47-3.38.72-5.06a4.81,4.81,0,0,1,.12-.76,349,349,0,0,1,7.44-36.52Z"/><path class="cls-1" d="M76.42,338.2H177.9V476.53H83.84c-.24,1.43-.48,2.85-.75,4.28H177.9V592.35a1.43,1.43,0,0,1-.47-.18c-2.67-1.06-5.33-2.18-8-3.37-.57-.26-1.13-.53-1.71-.78q-4-1.89-8-4c-.93-.49-1.86-1-2.77-1.52a166.36,166.36,0,0,1-39.9-31.06c-.35-.33-.67-.69-1-1-1.62-1.76-3.21-3.54-4.75-5.36-.58-.67-1.14-1.35-1.71-2-1.82-2.22-3.58-4.52-5.28-6.83-.26-.35-.5-.69-.75-1a148,148,0,0,1-17.2-31.1c-.14-.33-.27-.69-.4-1-1.38-3.5-2.63-7-3.71-10.67-.46-1.51-.91-3-1.29-4.57-.14-.45-.25-.91-.37-1.36-5.62-22.15-6.27-45.17-6.27-68.08v-8q.12-14,.33-28,.07-3.6.15-7.23.21-9.19.6-18.42c.06-1.7.14-3.41.23-5.1q.06-1.47.15-2.94Q76,343.44,76.42,338.2Z"/><polygon class="cls-1" points="278.44 209.28 278.44 333.92 202.13 333.92 202.13 209.28 213.01 209.28 213.01 167.08 257.67 167.08 257.67 209.28 278.44 209.28"/><rect class="cls-1" x="202.13" y="338.19" width="76.3" height="138.33"/><path class="cls-1" d="M202.14,480.81h76.3v115A197.64,197.64,0,0,1,251,601.64c-.76.11-1.51.2-2.27.28-1.12.13-2.23.25-3.34.35l-3.35.27h-.34l-1.48.08h-.51c-.6,0-1.19.07-1.79.08h0c-.86,0-1.71.06-2.57.08h-7.08a15.74,15.74,0,0,1-1.94-.08q-1.54-.06-3.12-.18h0l-1.93-.14c-.8-.06-1.6-.14-2.39-.22-1.68-.15-3.35-.34-5-.57l-2-.28-1-.14c-1.67-.25-3.33-.53-5-.85-1.24-.22-2.46-.47-3.69-.73Z"/><rect class="cls-1" x="692.53" y="194.56" width="62.92" height="139.35"/><polygon class="cls-1" points="755.46 338.19 755.46 476.53 443.15 476.53 443.15 416.86 609.5 416.86 609.5 452.06 692.53 452.06 692.53 338.19 755.46 338.19"/><path class="cls-1" d="M756.45,629.14a5.65,5.65,0,0,1-1-.06v90.75q-16.91-1.4-33.7-3.89a551.22,551.22,0,0,1-146.06-42.5q-20.13-9.08-39.44-19.79a504.36,504.36,0,0,1-61.63-40.31q-7.38-5.64-14.54-11.53c-3.31-2.74-6.59-5.54-9.93-8.25-2.3-1.87-4.63-3.72-7-5.48V480.81H691.71c-.18-.64-.34-1.27-.52-1.91.19.64.37,1.27.53,1.91h63.74V629.07C755.79,629.08,756.12,629.11,756.45,629.14Z"/><path class="cls-1" d="M919.56,184.18h-41V171.44h18.37V133.49q2.39.88,4.76,1.8v36.15h17.86Z"/><path class="cls-1" d="M1018.35,333.92H779.7V194.57h10.58v103h48.34v-61h40V188.44h41V236.6H959.5v61h58.86Z"/><path class="cls-1" d="M779.7,338.2V476.53h238.66V338.2Zm303.41,301.15.34-109.5h-65.09v-49H779.7V721.38a547.35,547.35,0,0,0,58.7-.71h.34q14-.9,27.87-2.56h.21a512.28,512.28,0,0,0,143.23-38.26"/><path class="cls-1" d="M1111.9,480.81h55.67c-.48,28.09-6.12,55.68-18.47,81.16-10.26,21.17-24.53,39.68-41.4,55.85v-88h4.2Z"/><path class="cls-1" d="M1167.61,476.53H1111.9V360.92h30.15C1157.64,397.35,1167.56,437.35,1167.61,476.53Z"/><rect class="cls-1" x="721.75" y="233.3" width="33.71" height="43.69"/><rect class="cls-1" x="721.75" y="323.86" width="33.71" height="10.06"/><rect class="cls-1" x="721.75" y="338.19" width="33.71" height="29.35"/><rect class="cls-1" x="721.75" y="414.42" width="33.71" height="43.69"/><rect class="cls-1" x="721.75" y="504.98" width="33.71" height="43.69"/><path class="cls-1" d="M755.46,629.07a4.86,4.86,0,0,1,1,.07,5.65,5.65,0,0,1-1-.06v10.15H721.75V595.54h33.71Z"/><path class="cls-1" d="M755.46,686.09v33.74q-16.92-1.4-33.71-3.89V686.09Z"/><rect class="cls-1" x="443.15" y="473.32" width="144.47" height="3.21"/><rect class="cls-1" x="443.15" y="480.8" width="144.47" height="12.3"/><rect class="cls-1" x="443.15" y="533.42" width="144.47" height="19.78"/><path class="cls-1" d="M587.62,593.52V613.3h-113q-7.38-5.62-14.54-11.54c-3.32-2.73-6.6-5.53-9.93-8.24Z"/><path class="cls-1" d="M587.62,653.61v19.83H575.69q-20.13-9.08-39.44-19.79Z"/><rect class="cls-1" x="838.4" y="351.6" width="28.44" height="28.44"/><rect class="cls-1" x="222.62" y="219.09" width="28.44" height="28.44"/><rect class="cls-1" x="222.62" y="285.15" width="28.44" height="28.44"/><rect class="cls-1" x="222.62" y="351.21" width="28.44" height="28.44"/><rect class="cls-1" x="222.62" y="417.26" width="28.44" height="28.44"/><rect class="cls-1" x="222.62" y="483.32" width="28.44" height="28.44"/><rect class="cls-1" x="222.62" y="549.38" width="28.44" height="28.44"/><rect class="cls-1" x="946.97" y="351.6" width="28.44" height="28.44"/><rect class="cls-1" x="838.4" y="421.75" width="28.44" height="28.44"/><rect class="cls-1" x="946.97" y="421.75" width="28.44" height="28.44"/><rect class="cls-1" x="838.4" y="491.89" width="28.44" height="28.44"/><rect class="cls-1" x="946.97" y="491.89" width="28.44" height="28.44"/><rect class="cls-1" x="838.4" y="562.04" width="28.44" height="28.44"/><rect class="cls-1" x="946.97" y="562.04" width="28.44" height="28.44"/><rect class="cls-1" x="838.4" y="632.19" width="28.44" height="28.44"/><rect class="cls-1" x="946.97" y="632.19" width="28.44" height="28.44"/><polygon class="cls-1" points="838.4 720.67 838.4 702.33 866.83 702.33 866.83 718.06 838.4 720.67"/><path class="cls-1" d="M80.58,298.35v16.27H177.9V298.35Zm9.69,15.25h-8V299.38h8Zm9.69,0H92V299.38h8Zm9.67,0h-8V299.38h8Zm9.69,0h-8V299.38h8Zm9.68,0h-8V299.38h8Zm9.69,0h-8V299.38h8Zm9.69,0h-8V299.38h8Zm9.68,0h-8V299.38h8Zm9.68,0h-8V299.38h8Zm9.69,0h-8V299.38h8Z"/><path class="cls-1" d="M80.58,345.71V362H177.9V345.71ZM90.27,361h-8V346.74h8Zm9.69,0H92V346.74h8Zm9.67,0h-8V346.74h8Zm9.69,0h-8V346.74h8Zm9.68,0h-8V346.74h8Zm9.69,0h-8V346.74h8Zm9.69,0h-8V346.74h8Zm9.68,0h-8V346.74h8Zm9.68,0h-8V346.74h8Zm9.69,0h-8V346.74h8Z"/><path class="cls-1" d="M80.58,393.08v16.26H177.9V393.08Zm9.69,15.23h-8V394.09h8Zm9.69,0H92V394.09h8Zm9.67,0h-8V394.09h8Zm9.69,0h-8V394.09h8Zm9.68,0h-8V394.09h8Zm9.69,0h-8V394.09h8Zm9.69,0h-8V394.09h8Zm9.68,0h-8V394.09h8Zm9.68,0h-8V394.09h8Zm9.69,0h-8V394.09h8Z"/><path class="cls-1" d="M80.58,440.44V456.7H177.9V440.44Zm9.69,15.24h-8V441.44h8Zm9.69,0H92V441.44h8Zm9.67,0h-8V441.44h8Zm9.69,0h-8V441.44h8Zm9.68,0h-8V441.44h8Zm9.69,0h-8V441.44h8Zm9.69,0h-8V441.44h8Zm9.68,0h-8V441.44h8Zm9.68,0h-8V441.44h8Zm9.69,0h-8V441.44h8Z"/><path class="cls-1" d="M81.05,487.78c.38,1.54.83,3.06,1.29,4.57v-3.54h8V503H86.05c.12.34.25.69.39,1h91.5V487.78Zm19,15.24h-8V488.81h8Zm9.67,0h-8V488.81h8Zm9.69,0h-8V488.81h8Zm9.68,0h-8V488.81h8Zm9.69,0h-8V488.81h8Zm9.69,0h-8V488.81h8Zm9.68,0h-8V488.81h8Zm9.68,0h-8V488.81h8Zm9.69,0h-8V488.81h8Z"/><path class="cls-1" d="M103.59,535.14c.26.32.5.68.75,1h5.29V543l1.71,2V536.1h8v14.34h-3.29c.32.33.63.68,1,1h60.83v-16.3Zm25.46,15.3h-8V536.16h8Zm9.69,0h-8V536.16h8Zm9.69,0h-8V536.16h8Zm9.68,0h-8V536.16h8Zm9.68,0h-8V536.16h8Zm9.69,0h-8V536.16h8Z"/><path class="cls-1" d="M157,582.5c.92.52,1.85,1,2.78,1.51v-.5h8V588c.58.25,1.13.52,1.7.78v-5.29h8v8.66a2.64,2.64,0,0,0,.47.17V582.5Z"/><path class="cls-1" d="M817.05,333.92Zm-61.6,295.15ZM691.18,478.9c.19.64.36,1.28.53,1.91h0C691.56,480.18,691.38,479.54,691.18,478.9Zm125.87-145Zm-604-149.74v4.26h44.67v-4.28ZM755.46,629.07ZM691.18,478.9c.19.64.36,1.28.53,1.91h0C691.56,480.18,691.38,479.54,691.18,478.9Zm125.87-145Zm-61.6,295.15ZM691.18,478.9c.19.64.36,1.28.53,1.91h0C691.56,480.18,691.38,479.54,691.18,478.9Z"/><ellipse class="cls-1" cx="879.43" cy="847.22" rx="97.44" ry="15.65"/><ellipse class="cls-1" cx="439.97" cy="831.57" rx="97.44" ry="15.65"/><path class="cls-2" d="M552.15,417.75a.53.53,0,0,0-.15-.26c-1.49-1.47-20.49-28.34-20.49-28.34s-1-3-2.62-6.9A6.86,6.86,0,0,0,530,380a7.72,7.72,0,0,0,.19-1.05c0-.11.08-.2.11-.31a7.59,7.59,0,0,0-.1-4.12,7.24,7.24,0,0,1-.41,1,17.24,17.24,0,0,0-1.5-3.34c-2.52-4.34-6.12-8-8.77-12.23a33.09,33.09,0,0,1-4.51-22v1.18a34.24,34.24,0,0,1,.6-4.5,31.9,31.9,0,0,1,1.67-4.94c2.38-5.45,6.23-10.2,8.57-15.67a29.49,29.49,0,0,0,1.78-5.73,32.37,32.37,0,0,0,.89-10.05,16,16,0,0,1-.25,2.39A32.52,32.52,0,0,0,519.12,279c-8.17-8.21-19.9-11.4-31.12-13.08a28.53,28.53,0,0,1-13.1-5c-4.31-2.79-9.88-3.46-14.92-2.85a24.64,24.64,0,0,0-15.19,7.51c-5.33,5.86-7.64,14.16-13.86,19.1-3.77,3-8.55,4.4-12.94,6.44s-8.54,5-9.95,9.38v.16l-.06.16c-1.46,5.18,1.36,10.45,2.83,15.62,1.53,5.35,1.63,11,1.71,16.53.11,6.76.21,13.53.1,20.3-.05,2.66-.14,5.35-.34,8a42.13,42.13,0,0,0-6.87,2.76c-2.24,1.46-10.62,10.51-10.62,10.51L378.4,437.16l.22.25-.22.85.83-.19c2.32,2.5,9.25,9.62,16.73,14.06l.7,12.28s.84,12.32,12.17,17.41c.26,4.27,1.07,21.61-2.68,28.48a32,32,0,0,0-3.54,16.28s1.31,10.42-.18,15.9a25.93,25.93,0,0,0-.19,11.16h0v3.29c0,11.09.13,46.63,0,50.65-.19,4.75,0,75,0,75s-.93,35.11-3.91,44.62-2.23,41-2.23,41-1.87,37.51,4.74,44.91c0,.33-.06.67-.07,1v.47c-.08,2.85.47,5.88,2.92,6.81,5,1.92,11.61,7.68,12.86,9.33s8.52,5.76,18,4.66a135.38,135.38,0,0,1,17.89-.82h0s3.74-.68,2.53-5.33h0c-.78-2.9-3.7-7.36-5.78-10.29.38.1.75.18,1.1.25l.36.07h.94a2.62,2.62,0,0,0,.56,0h0c2.51-.24,11.87,4.12,13.54,7s7.56,5.07,12,5.62c2.64.32,9.3-.22,14.89-.94a54.85,54.85,0,0,0,8.34-1.52c1.32-.5,1.6-2.1,1.22-3.9h0a10.13,10.13,0,0,0-3.46-5.84c-1.62-1.15-3.76-4.18-5.34-6.66l-.42-.67c2.79-2.66,7.83-11.36,9.36-13.16,1.86-2.19-3-82.28-3-82.28V676.76l7.45-38,5.21-20.11,4.47-30.36s7.82-35.46,5.41-38.94h0c0-.07-2-36.58-4.1-45.35-.91-3.91-.68-12.71-.14-21.27a4.2,4.2,0,0,0,1-4.38,9,9,0,0,0-.58-1.49v-.46a68.79,68.79,0,0,1,13.47-4.58c7.45-1.46,5.59-5.3,5.59-5.3s1.68-3.29,2.79-5.3.19-19.75,0-21.21c-.07-.59-.53-3.85-1.06-7.55,2.39-1.7,5.5-3.81,8.89-5.81C554.13,422.83,552.68,418.8,552.15,417.75ZM455,671.28s-5.59,14.26-3.35,17.91-.37,17.2-.37,17.2l-1.87,20.11s-5.21,37.3-3.35,46.07c1.46,6.88,2,27.43,2.17,36h0a2.53,2.53,0,0,0-.37.18l-.25.13c.86-3.37.5-10.19-3.77-23.91l-.36-56.67s-.66-65.46,4.51-72.78,7-19.75,7-19.75-1.12,17.93-1.85,22.68S455,671.28,455,671.28ZM444.54,812.14c-.05.12-.11.24-.15.35l-.28-.36A3.09,3.09,0,0,0,444.54,812.14Z"/><path class="cls-3" d="M501.55,834.6c-2.89,1.11-18.56,3-22.94,2.47s-10.18-2.75-11.83-5.65-10.9-7.28-13.38-7a9,9,0,0,1-3-.42,37.35,37.35,0,0,1-5-1.92,9.19,9.19,0,0,1,.11-3.8,6.29,6.29,0,0,1,.22-.74,6.61,6.61,0,0,1,3.36-3.74l.36-.17a10.18,10.18,0,0,1,2.16-.66c7.86-1.51,40.29,1.52,40.29,1.52s.91,1.63,2.16,3.65c1.56,2.5,3.68,5.55,5.28,6.7a10.25,10.25,0,0,1,3.41,5.88C503.13,832.49,502.85,834.11,501.55,834.6Z"/><path class="cls-4" d="M501.55,834.6c-2.89,1.11-18.55,3-22.93,2.47s-10.18-2.76-11.84-5.65-10.89-7.28-13.37-7-8-2.34-8-2.34-.86-4,1.64-6.73l5,3.55s13.38,4.15,15.86,8,7,6,13.53,6.39c4.88.32,16.09-1.58,21.34-2.53C503.13,832.49,502.86,834.11,501.55,834.6Z"/><path class="cls-3" d="M453.68,839.7a133.55,133.55,0,0,0-17.66.83c-9.39,1.1-16.56-3-17.81-4.69s-7.72-7.4-12.69-9.4c-2.43-.94-3-4-2.89-6.86v-.47a27.86,27.86,0,0,1,.8-5.37l38.91-.83,3.37,4.57.52.7,2,2.79s.93,1.22,2.15,3c2.06,3,4.94,7.43,5.71,10.36h0C457.37,839,453.68,839.7,453.68,839.7Z"/><path class="cls-4" d="M453.68,839.7a133.55,133.55,0,0,0-17.66.83c-9.38,1.1-16.56-3-17.8-4.69s-7.73-7.45-12.7-9.38c-2.43-.94-3-4-2.89-6.86,2.78.65,8.62,2.31,10.91,5.2,3,3.86,8.37,10.35,16,10.76,6.16.33,21.16-.77,26.66-1.21C457.38,839,453.68,839.7,453.68,839.7Z"/><path class="cls-4" d="M449.05,813.76c-.45,3.34-1.84,4.24-2.84,4.44a1.84,1.84,0,0,1-.74,0l-.39-.06s-34.94,7.72-42,1.47a4.1,4.1,0,0,1-.5-.52,27.86,27.86,0,0,1,.8-5.37l38.91-.83,3.37,4.57a6.61,6.61,0,0,1,3.36-3.74Z"/><path class="cls-4" d="M494.05,818.1c-.78.86-1.43,1.35-1.84,1.18-1.84-.74-16.92-3.31-21.71-1.1s-21,.36-21,.36,0-1.92-.09-5a10.18,10.18,0,0,1,2.16-.66c7.86-1.51,40.29,1.52,40.29,1.52S492.81,816.08,494.05,818.1Z"/><path class="cls-5" d="M516.87,591.9l-4.42,30.54-5.14,20.24L500,680.94v40.5s4.78,80.58,2.94,82.78-8.83,14.73-10.67,14-16.92-3.31-21.71-1.11-21,.37-21,.37-.37-31.27-2.21-40.1S450.61,731,450.61,731l1.84-20.23s2.58-13.62.37-17.3,3.31-18,3.31-18-2.57-8.11-1.83-12.89,1.83-22.81,1.83-22.81-1.83,12.52-6.94,19.87-4.46,73.22-4.46,73.22l.36,57c9.21,30.18,0,27.23,0,27.23s-34.94,7.73-42,1.47-5-45.66-5-45.66-.73-31.64,2.21-41.2,3.87-44.89,3.87-44.89-.19-70.65,0-75.42c.14-4,0-39.81,0-51V557.1l4.22-10.48,50-6.26h23.92s36,8.46,39.72,12.11a.83.83,0,0,1,.2.22C524.6,556.22,516.87,591.9,516.87,591.9Z"/><path class="cls-4" d="M456.16,752.32s11,26.49,16.19,28.33S456.16,752.32,456.16,752.32Z"/><path class="cls-4" d="M460.23,791.32s37.14,1.84,36.77,5.89S460.23,791.32,460.23,791.32Z"/><path class="cls-4" d="M410.54,780.73c1.47,1.39,28.33,4,26.12,6.54s-23.91,7.48-23.91,7.48Z"/><path class="cls-4" d="M406.13,735c0,1.1,5.52,35.32,7,36.79s13.61,2.94,13.61,2.94Z"/><path class="cls-6" d="M446.18,267.29c-5.27,5.89-7.55,14.24-13.69,19.22-3.73,3-8.45,4.43-12.79,6.47s-8.64,5.15-9.93,9.77c-1.44,5.2,1.34,10.51,2.8,15.71,1.51,5.38,1.6,11,1.69,16.63.1,6.81.21,13.62.09,20.43-.18,10.61-1.06,21.71-6.69,30.7,20.33,6.47,41.95,7.35,63.27,8.18a63.9,63.9,0,0,0,12.29-.31,104.85,104.85,0,0,0,10.47-2.65,80.28,80.28,0,0,1,20.86-2.67c3.07,0,6.2.19,9.16-.61s5.81-2.85,6.61-5.81c.71-2.66-.33-5.49-1.69-7.88-2.48-4.36-6-8-8.66-12.3a33.8,33.8,0,0,1-2.17-30.39c2.36-5.49,6.16-10.27,8.48-15.77a33.26,33.26,0,0,0-6.7-35.28c-8.07-8.26-19.65-11.46-30.73-13.16a27.85,27.85,0,0,1-12.94-5c-4.25-2.8-9.76-3.48-14.74-2.86A24,24,0,0,0,446.18,267.29Z"/><g class="cls-7"><path d="M518.11,326a33.29,33.29,0,0,0-2.55,15.27,32.7,32.7,0,0,1,2.55-10.84c2.35-5.49,6.15-10.27,8.47-15.77a31.91,31.91,0,0,0,2.33-14.52,31.1,31.1,0,0,1-2.33,10.1C524.26,315.75,520.46,320.52,518.11,326Z"/><path d="M414.56,333.73c.06,3.92.12,7.85.13,11.77q0-8.1-.13-16.18c-.08-5.59-.18-11.25-1.69-16.64-1-3.42-2.48-6.89-3-10.34-.89,4.9,1.64,9.87,3,14.76C414.38,322.44,414.48,328.14,414.56,333.73Z"/><path d="M524.05,382.44c-3,.81-6.08.63-9.15.61a80.64,80.64,0,0,0-20.85,2.62,104.8,104.8,0,0,1-10.47,2.64,63.21,63.21,0,0,1-12.3.32c-20.6-.81-41.49-1.68-61.22-7.57a33.53,33.53,0,0,1-2,3.8c20.33,6.46,41.95,7.35,63.26,8.18a63.21,63.21,0,0,0,12.3-.32,104,104,0,0,0,10.43-2.63,80.31,80.31,0,0,1,20.81-2.65c3.07,0,6.19.19,9.15-.62s5.81-2.84,6.61-5.8a7.94,7.94,0,0,0-.1-4.16C529.63,379.66,526.88,381.61,524.05,382.44Z"/></g><path class="cls-8" d="M494.43,370.59c-.74,1.66-3.86,16-4.6,17.47s-4.78,25-5.15,26.32-26.63-5.52-26.63-5.52l-15.81-13.25L426,379.44s-.48-14.59,11.49-19.27a18.1,18.1,0,0,1,2.5-.78C454.5,355.9,453,311.75,453,311.75l29.8,12.87s-5.52,25.76-5.33,30.73c.05,1.67,1.36,2.71,3.07,3.34a24.32,24.32,0,0,0,8.14.88S495.17,368.94,494.43,370.59Z"/><path class="cls-5" d="M547.78,419l4.23,1.11s3.13,4.76-4.23,9.19a128.68,128.68,0,0,0-13.43,9.39l-21.75,6.62-4.19-13.15,20.24-15.36Z"/><path class="cls-4" d="M547.78,419l4.23,1.11s3.13,4.76-4.23,9.19a128.68,128.68,0,0,0-13.43,9.39l-21.75,6.62-4.19-13.15,20.24-15.36Z"/><path class="cls-5" d="M389.05,431.67,380.59,440s15.26,17.66,27,18.76,19.31-13.43,19.31-13.43l-10.16-16Z"/><path class="cls-4" d="M389.05,431.67,380.59,440s15.26,17.66,27,18.76,19.31-13.43,19.31-13.43l-10.16-16Z"/><circle class="cls-4" cx="469.41" cy="311.17" r="29.43"/><circle class="cls-8" cx="469.41" cy="308.96" r="29.43"/><path class="cls-4" d="M522.21,556a95.56,95.56,0,0,0-19.69,4.41c-11,3.66-97.2.06-98.4,0v-3.31l4.22-10.48,50-6.26h23.92s36,8.46,39.72,12.11C522.13,554.7,522.21,556,522.21,556Z"/><path class="cls-4" d="M494.43,370.59c-.74,1.66-3.86,16-4.6,17.47s-4.78,25-5.15,26.32-26.63-5.52-26.63-5.52l-15.81-13.25L426,379.44s-.48-14.59,11.49-19.27l29.72,34.17,13.38-35.65a24.32,24.32,0,0,0,8.14.88S495.17,368.94,494.43,370.59Z"/><path class="cls-5" d="M467.2,395.44l-30.42-35a12.76,12.76,0,0,0-12.07-.89c-6.81,2.95-15.27,5.34-17.48,6.81s-10.49,10.57-10.49,10.57l24.66,64.51-10.86,42.49s1.66,21.71-2.57,29.62a32.49,32.49,0,0,0-3.5,16.37s1.29,10.49-.18,16a26.69,26.69,0,0,0-.19,11.22s87.39,3.68,98.42,0a94.28,94.28,0,0,1,19.69-4.41s-2-36.8-4-45.63,1.66-42.49,1.66-42.49l-2.39-36.06,14.34-37s-7.77-23.72-15.87-26.11c0,0-14.71-3.5-17.84-5.15s-12.33-3.13-12.33-3.13L481,358.78Z"/><rect class="cls-4" x="420.41" y="443.6" width="107.18" height="70.04" rx="2.94" transform="translate(-35.68 919.06) rotate(-86.11)"/><rect class="cls-6" x="422.61" y="441.41" width="107.18" height="70.04" rx="2.94" transform="translate(-31.43 919.21) rotate(-86.11)"/><rect class="cls-3" x="430.06" y="446.48" width="92.22" height="61.02" transform="translate(-32.03 919.7) rotate(-86.11)"/><rect class="cls-4" x="471.98" y="436.81" width="13.89" height="49.85" transform="translate(-15.12 907.25) rotate(-86)"/><rect class="cls-4" x="494.66" y="511.01" width="7.24" height="7.91" transform="translate(-49.3 977.17) rotate(-86.11)"/><rect class="cls-4" x="470.63" y="476.18" width="7.24" height="40.49" transform="translate(-53.21 935.9) rotate(-86.11)"/><rect class="cls-6" x="475.23" y="412.66" width="11.13" height="42.16" transform="translate(15.43 884) rotate(-86.11)"/><rect class="cls-4" x="475.23" y="412.66" width="11.13" height="42.16" transform="translate(15.43 884) rotate(-86.11)"/><path class="cls-4" d="M470.88,554s-.37,54.46-14.72,85.73c0,0,17.3-41.21,17.3-42.86s9.56-19,7-24.1S470.88,554,470.88,554Z"/><path class="cls-4" d="M471.66,301.6A20.47,20.47,0,0,1,475,287.89a16.89,16.89,0,0,0,13.06,17.8,2.21,2.21,0,0,1-.63-2.42c2.05,2.32,3.62,5.07,5.94,7.11s5.8,3.26,8.53,1.81c3.71-2,3.75-7.27,2.79-11.37a53.46,53.46,0,0,0-12.29-23.47,16.26,16.26,0,0,0-12.9-6.56c-5.68-.44-11.58.06-16.67,2.61a44.33,44.33,0,0,0-8,5.59l-14,11.42a13.17,13.17,0,0,0-3.4,3.58,9.85,9.85,0,0,0-1.06,3.75,20.21,20.21,0,0,0,9.42,19.07,14.9,14.9,0,0,1,8.93-14,3.86,3.86,0,0,1,1.39,2.89l2.95-5.26a5.76,5.76,0,0,1,2-2.37c1.82-1,4.09.18,5.64,1.59s3.06,3.17,5.14,3.39l.08-7.83"/><path class="cls-6" d="M471.66,300.5A20.49,20.49,0,0,1,475,286.78c-.9,8,5.13,16.26,13.07,17.8a2.19,2.19,0,0,1-.63-2.41c2.05,2.32,3.62,5.06,5.94,7.11s5.8,3.26,8.53,1.8c3.71-2,3.75-7.27,2.79-11.36a53.46,53.46,0,0,0-12.29-23.47,19.6,19.6,0,0,0-6.87-5.34,20.22,20.22,0,0,0-6-1.22c-5.68-.44-11.58.05-16.67,2.6a44.89,44.89,0,0,0-8,5.6l-14,11.42a13.17,13.17,0,0,0-3.4,3.58,9.85,9.85,0,0,0-1.06,3.75,20.19,20.19,0,0,0,9.42,19.06,14.93,14.93,0,0,1,8.93-14,3.89,3.89,0,0,1,1.39,2.89l2.94-5.24a5.76,5.76,0,0,1,2-2.37c1.82-1,4.09.18,5.64,1.59s3.06,3.16,5.14,3.39l.08-7.84"/><path class="cls-8" d="M485.6,486.13c-2.57-1.3-45.07,5.33-45.07,5.33s-7-2-23.92-4.78-18-19.32-18-19.32l-1.85-33.11,5.71-5,24.46,16s.38,8.09,0,9.55c-.24,1-.88,2.19-.82,3a1,1,0,0,0,.82.9c1.66.42,24.28,4.08,24.28,4.08s52.43-3.59,65.5,14.07a13.27,13.27,0,0,1,2.31,4.36C522.26,493.28,487.93,487.28,485.6,486.13Z"/><path class="cls-4" d="M519.05,481.28c-2,.89-3.24,1.53-3.24,1.53s-18.76-.55-29.3-4.37-23.35-3.14-23.35-3.14-43.92-7.56-37.11-17.43a1,1,0,0,0,.82.9c1.66.42,24.28,4.08,24.28,4.08s52.43-3.59,65.5,14.07A13.3,13.3,0,0,1,519.05,481.28Z"/><path class="cls-8" d="M537.29,423s2.58,18.21,2.76,19.69,1.11,19.31,0,21.34-2.76,5.33-2.76,5.33,1.84,3.86-5.52,5.34-16,5.88-16,5.88-18.77-.55-29.25-4.41-23.36-3.13-23.36-3.13-55.75-9.57-31.83-21.25S472.17,456,472.17,456l26.67-1.65s9.94-6.08,12.7-5.52a10.18,10.18,0,0,0,5.7-.92l.19-19.32Z"/><path class="cls-4" d="M402.05,378.32l-5.34-.28-16.18,63s17.47-4.42,25,0,21.34,5.33,21.34,5.33l-5.15-50.22Z"/><path class="cls-5" d="M402.05,377.21l-5.34-.28-16.18,63s17.47-4.42,25,0,21.34,5.33,21.34,5.33L421.72,395Z"/><path class="cls-4" d="M524.42,391l7.35,1.66s18.77,27,20.24,28.51-7,7-10.49,7-20.6,2-25.57,6.62-2.9-18.63-2.9-19.16,6.17-15.2,6.17-15.2Z"/><path class="cls-5" d="M524.42,389.91l7.35,1.65s18.77,27.05,20.24,28.52-7,7-10.49,7-20.6,2-25.57,6.62-2.9-18.63-2.9-19.16,6.21-15.25,6.21-15.25Z"/><g class="cls-7"><path d="M474.94,286.87a14.7,14.7,0,0,1,.05-2.3,20.47,20.47,0,0,0-3.08,7.55v2.79c0,1.62,0,3.25-.05,4.87h-.14v.75a4,4,0,0,0-.05-.77c-2-.32-3.43-2-4.92-3.34s-3.82-2.62-5.64-1.59a5.76,5.76,0,0,0-2,2.37l-3,5.24a3.86,3.86,0,0,0-1.39-2.88,14.9,14.9,0,0,0-8.93,14,20.31,20.31,0,0,1-9.49-15.93,20.23,20.23,0,0,0,9.49,18.13,14.93,14.93,0,0,1,8.93-14,3.89,3.89,0,0,1,1.39,2.89l2.94-5.24a5.76,5.76,0,0,1,2-2.37c1.82-1,4.09.18,5.64,1.59s3.06,3.16,5.14,3.39q0-3.84.08-7.66A20.35,20.35,0,0,1,474.94,286.87Z"/><path d="M471.56,296.94c.05-.68.13-1.36.23-2l.11-2.76A20.56,20.56,0,0,0,471.56,296.94Z"/><path d="M501.9,308.87c-2.73,1.46-6.21.24-8.53-1.8s-3.89-4.79-5.94-7.11a2.21,2.21,0,0,0,.63,2.42,2.36,2.36,0,0,1-.58-.15c2,2.3,3.59,5,5.89,7s5.8,3.26,8.53,1.8,3.51-4.88,3.27-8.21C505,305.44,504.05,307.71,501.9,308.87Z"/><path d="M487.42,302.21A17,17,0,0,1,475,287.35c-.57,7.85,5.35,15.72,13.1,17.23A2.19,2.19,0,0,1,487.42,302.21Z"/></g><path class="cls-9" d="M967.66,465.65s-3.94-.55-3.94-6.28-2.82-16.46-2.82-16.46h0s-2.44-18.67-5.81-21.63-7.7-20.34-7.7-20.34-.74-9.43-2.25-11.46-3.55-7-6.56-14.09-15.53-11.95-15.53-11.95S900.36,350.28,893.93,346h0a10,10,0,0,1-1.64-1.24c-1.12-1.46-6-1.49-6-1.49A98.82,98.82,0,0,1,885.13,333V331.9a34.61,34.61,0,0,0,15.21-18.82c.12-.38.22-.77.33-1.16a3.21,3.21,0,0,0,2-1.76c.57-1.29.59-2.79,1.31-4,.84-1.42,2.44-2.18,3.7-3.24,3.18-2.71,4-7.26,3.85-11.39-.1-3.36-.64-6.74-.43-10.07a4,4,0,0,1,.06-.84c.06-.49.13-1,.22-1.48.49-2.48,1.56-4.82,2.16-7.28s.66-5.23-.74-7.35c-2-3.11-6.32-3.73-10.07-4-4.25-.36-8,.1-10.77-3.43a37.7,37.7,0,0,0-4.28-5.16c-.56-.52-6-3.85-6-4.06a24.33,24.33,0,0,0-17-1.31c-2.83.82-5.48,2.16-8.35,2.83-6.16,1.46-13.26-.12-18.5,3.41-2.92,2-4.67,5.19-6.31,8.28-1.33,2.55-2.69,5.1-4.06,7.65-2.22,4.19-4.46,8.45-5.39,13.09a22.57,22.57,0,0,0-.37,3.07h0v1.59a5.49,5.49,0,0,0,.06,1,5.73,5.73,0,0,0,.07.62c.07.21.09.68.15,1s.18.89.3,1.32a2,2,0,0,0,.18.56c.06.19.22.67.35,1s.14.35.22.52a9.36,9.36,0,0,0,.51,1c.08.13.14.26.22.39a10.26,10.26,0,0,0,.92,1.34c2.13,2.67,5.29,4.37,7.62,6.87v1.12A34.23,34.23,0,0,0,848,331.11c0,.38,0,.77.07,1.16a57.5,57.5,0,0,1-.11,8.9,4.24,4.24,0,0,0-3.32-1.48,5,5,0,0,0-1.28.11l-.09-.07h0v.09c-2.2.54-4.91,2.83-7.5,9.34,0,0-7.88,8.88-13.88,8.51s-21.19,9.25-21.19,9.25-14.82,9.61-18,19.41a135.38,135.38,0,0,1-6.39,16.28l-18.37,37.72h0l-3.37,30s1.87,13.31,1.5,15.35S763.74,506,763.74,506s26.63,46.78,37.51,49.18l.78-.54a6.49,6.49,0,0,0,1.47.54l2.24-1.57a23.22,23.22,0,0,1-.18,5.27c-1.49,4.63.57,34.77,3.19,40.68S810.44,683,810.44,683l-.37,6.83a2.9,2.9,0,0,0,.09.6l-.09,1.62.27.14a19.3,19.3,0,0,1-.27,6.52c-.94,3-1.32,11.47-1.32,11.47s-7.5,47.88-3.94,57.5,6.57,20.16,6.57,20.16,3.75,12,.18,14-13.68,5.55-11.62,10.54c1.9,4.62,9.11,17,10.18,18.81l-.09,1-1.47,15.93a20.09,20.09,0,0,0,1.69,6.08c1.61,3.48,4.73,7.07,10.69,6.68,1-.07,2.15-.18,3.28-.33,10.89-1.47,24.29-6.33,24.29-6.33a9.8,9.8,0,0,1-1.89-1.57h0a5.48,5.48,0,0,1-1.67-4c.16-2.91-5.27-16.72-6.63-20.13l-.31-.76s12.38-13,10.32-24.41c0,0-13.7-8-9.19-12.4s12.57-17,12.57-17,.37-47.15,0-54.18a58.37,58.37,0,0,1,.69-14.64c.15-.72.33-1.43.52-2.14a128,128,0,0,0,18.86,1.43q3.47,0,7-.14,0,1,.09,2.16c.52,11.68,1.49,32.17,2.28,39.78,1.12,10.9,7.31,40.31,7.31,40.31s-11.81,7.57,2.06,26.26c0,0,0,6.76-.92,7.75h0a86.35,86.35,0,0,0-2.37,9.77c-.58,3.51-.82,7.08.12,8.92,2.25,4.42,15.75,4.06,15.75,4.06h0a1.88,1.88,0,0,1,.33,0,19.3,19.3,0,0,1,14.29,4.3c5.13,4.12,24.59,2.32,35.14,1,4.13-.53,6.89-1,6.89-1a4.13,4.13,0,0,0,.14-1.44h0c-.11-2.59-2.14-8.27-15.9-13.34,0,0-12.94-8.7-12.76-16.28h-1.78c.94,0,1.6,0,1.6,0s-5.07-18.49-3-20-4.13-22-4.13-22-3.55-34.4-3.75-36.8a21,21,0,0,1,.94-6.1l-.94-18.87s-.18-6.27,0-8.31a39,39,0,0,0-.42-5.29c-.09-.7-.18-1.43-.28-2.15,4.85-1.23,8-2.36,8-2.36l-.56-65.65c4.12-8,4.88-25.56,4.86-38,0-8-.36-13.92-.36-13.92L937,567.8s1.3-11-.76-13.41c-.91-1.09-.5-2.22.25-3.15a10,10,0,0,1,1.25-.88,1.59,1.59,0,0,1-.13-.22,9.14,9.14,0,0,1,1.25-.89s-2-3.1-.21-4.41c1.68,1.14,3.18,2,4.32,2.7-.08.73-.16,1.15-.16,1.15l.48-1,1.77,1s8.82-17.57,8.63-20.15,6-13.5,6-13.5.75-5.74,4.13-8.14,2.62-19.79,2.62-19.79.94-9.06,3.19-12.75S967.66,465.65,967.66,465.65ZM798.9,457.94l.17,4.19-1.72-2.76Z"/><path class="cls-3" d="M945.62,541.09l-2.16,9.2s-17.3-8.85-20.41-20,5.21-15.47,5.21-15.47l16.13,6.82Z"/><path class="cls-4" d="M945.62,541.09l-2.16,9.2s-17.3-8.85-20.41-20,5.21-15.47,5.21-15.47l16.13,6.82Z"/><path class="cls-3" d="M848.53,854.2s-16,5.88-27,6.62c-5.84.39-8.91-3.19-10.49-6.64a20.22,20.22,0,0,1-1.66-6l1.45-15.85.76-8.43L835,817.82,838.27,828l.31.76c1.32,3.39,6.66,17.13,6.5,20a5.46,5.46,0,0,0,1.63,4A9.33,9.33,0,0,0,848.53,854.2Z"/><path class="cls-3" d="M957.77,846.14a4.13,4.13,0,0,1-.14,1.44s-34.22,5.7-41.22,0a18.53,18.53,0,0,0-14.36-4.23s-13.24.36-15.45-4c-.92-1.83-.68-5.38-.11-8.87a85.31,85.31,0,0,1,2.32-9.72l.53-.42,3.15-2.53,36.88-1.09h.28c-.18,7.54,12.51,16.19,12.51,16.19C955.67,837.91,957.66,843.56,957.77,846.14Z"/><path class="cls-4" d="M957.78,846.14a4.11,4.11,0,0,1-.15,1.44s-34.22,5.7-41.21,0a18.51,18.51,0,0,0-14.37-4.23s-13.25.36-15.46-4c-.91-1.83-.68-5.38-.11-8.88,5.1.51,13.15,1.78,16.31,4.82,4.78,4.6,12.88,9.2,17.84,9.57C924.55,845.1,947.86,845.84,957.78,846.14Z"/><path class="cls-4" d="M848.53,854.2s-16,5.88-27,6.62c-5.84.39-8.91-3.19-10.49-6.64,4.08,1.37,9.73,2.8,12.7,1.49,3.52-1.57,16-2.57,23-3A9,9,0,0,0,848.53,854.2Z"/><path class="cls-10" d="M872.27,380.31c-13.2-5.13-30.18-22.08-25.94-30A17.81,17.81,0,0,0,848,344a58.78,58.78,0,0,0,.12-9,124.35,124.35,0,0,0-1.77-14.65s41.21.93,38.81,7c-.7,1.79-.82,4.88-.62,8.33s.69,7.38,1.21,10.69c.71,4.53,1.44,8,1.44,8s-2.53,3.53-4,3.72S891.21,387.66,872.27,380.31Z"/><path class="cls-4" d="M838.54,828.66l-.31.34c-12.32-14.9-27.22,3.68-27.22,3.68l-.22-.4.76-8.43,23.37-6.08,3.31,10.13Z"/><path class="cls-4" d="M929.67,817.77s-9-.18-13.8,4.06-28,.91-27,0a3.49,3.49,0,0,0,.52-1.53l3.15-2.53,36.88-1.09C929.56,817.38,929.67,817.77,929.67,817.77Z"/><path class="cls-5" d="M853.87,700.76a28,28,0,0,0-1.52,5.13,58.71,58.71,0,0,0-.69,14.56c.37,7,0,53.91,0,53.91s-7.91,12.51-12.33,16.92,9,12.33,9,12.33c2,11.41-10.12,24.29-10.12,24.29C825.89,813,811,831.57,811,831.57s-8.1-14-10.12-19,7.91-8.45,11.4-10.49-.18-14-.18-14-2.94-10.49-6.44-20.06,3.86-57.2,3.86-57.2.38-8.47,1.29-11.42a19.33,19.33,0,0,0,.27-6.48c-.06-.73-.13-1.33-.18-1.75s-.09-.6-.09-.6l.14-.24,5-9.32S856.27,694.89,853.87,700.76Z"/><path class="cls-5" d="M929.67,816.67s-9-.19-13.8,4-28,.92-27,0,.91-7.72.91-7.72c-13.61-18.59-2-26.13-2-26.13s-6.07-29.25-7.17-40.1c-.77-7.57-1.72-28-2.23-39.57-.22-5-.35-8.45-.35-8.45l11-2.19,1.43-.28,26.82-5.39s.74,5,1.24,9.09a40.52,40.52,0,0,1,.41,5.27c-.17,2,0,8.27,0,8.27l.92,18.76a21.88,21.88,0,0,0-.92,6.07c.19,2.4,3.68,36.61,3.68,36.61s6.07,20.42,4,21.89S929.67,816.67,929.67,816.67Z"/><path class="cls-4" d="M885.14,327.33c-.7,1.79-.82,4.88-.62,8.33A34.25,34.25,0,0,1,848.1,335a124.35,124.35,0,0,0-1.77-14.65S887.54,321.26,885.14,327.33Z"/><path class="cls-10" d="M901.05,305.25a34.21,34.21,0,0,1-68.42.82v-.82a34.22,34.22,0,1,1,68.44,0Z"/><path class="cls-4" d="M872.27,380.31c-13.2-5.13-30.18-22.08-25.94-30A17.81,17.81,0,0,0,848,344l18.07,14.86L877.23,368l8.5-21.63c.71,4.53,1.44,8,1.44,8s-2.53,3.53-4,3.72S891.21,387.66,872.27,380.31Z"/><polygon class="cls-5" points="919 445.98 903.91 699.48 884.23 700.77 833.26 553.78 841.62 379.27 843.39 342.4 866.05 361.01 877.23 370.18 885.98 347.91 902.25 362.09 919 445.98"/><path class="cls-4" d="M853.87,700.76a28,28,0,0,0-1.52,5.13A145,145,0,0,1,811.05,693l-.27-.14.09-1.61v-.84l5-9.32S856.27,694.89,853.87,700.76Z"/><path class="cls-4" d="M889.38,705.93a100.1,100.1,0,0,1-11.06,1.27c-.22-5-.35-8.45-.35-8.45l11.08-2.24Z"/><path class="cls-4" d="M918.58,699.93c-7.11,1.85-18.1,3.93-27.92,2.63l-.14-6.33,26.82-5.39S918.05,695.8,918.58,699.93Z"/><path class="cls-4" d="M890.48,703.72c-41,7-78.55-13.07-78.55-13.07l.36-6.8s.93-77.09-1.65-83-4.59-35.84-3.13-40.41-5.33-73.57-5.33-73.57l-1.1-28L760.79,442.5l18-37.53a135.84,135.84,0,0,0,6.26-16.2c3.13-9.75,17.66-19.32,17.66-19.32s14.9-9.56,20.79-9.2,13.61-8.46,13.61-8.46c5.7-14.53,10.86-8,10.86-8a12.86,12.86,0,0,1-.28,2.15c-2,15.95,32.34,66.35,32.83,67.25h0l3.31,79.66,3.31,100.81Z"/><path class="cls-3" d="M889.38,703.72c-41,7-78.56-13.07-78.56-13.07l.37-6.8s.92-77.09-1.66-83-4.59-35.87-3.12-40.48-5.36-73.54-5.36-73.54l-1.11-28-40.28-16.37,18-37.53a138.09,138.09,0,0,0,6.26-16.19c3.13-9.72,17.71-19.3,17.71-19.3s14.9-9.56,20.78-9.2,13.64-8.45,13.64-8.45c5.71-14.53,12-8,12-8,0,.7-.6,1-.28,2.15,4.4,15.47,31.24,66.35,31.73,67.25h0l3.31,79.66,3.24,100.86Z"/><path class="cls-4" d="M878.33,415.44c-4.41-1.84-27.77-28.51-27.77-28.51v-6.07c-.85-2-5.91-.78-10,.62l1.76-36.87,2,1.66C848.69,361.73,877.85,414.55,878.33,415.44Z"/><path class="cls-3" d="M879.44,413.24c-4.42-1.85-27.78-28.51-27.78-28.51v-6.08c-.85-2-5.9-.78-10,.62l1.73-36.83,2,1.65C849.8,359.53,879,412.34,879.44,413.24Z"/><path class="cls-4" d="M811.93,546.24c.55,0,28.51-2.94,28.51-2.94s16.93,33.3,15.82,41.39-3.12,15.27-9.93,14-36.65,1-36.65,1Z"/><path class="cls-3" d="M810.82,544c.56,0,28.52-2.94,28.52-2.94s16.92,33.35,15.82,41.35-3.13,15.27-9.93,14-36.66,1-36.66,1Z"/><path class="cls-10" d="M831.89,528.44s25.66,13.8,26.21,18-13.06-1.84-16-2.58a38,38,0,0,0-5.89-.92l-19.61.53Z"/><circle class="cls-4" cx="871.16" cy="414.46" r="2.7"/><circle class="cls-6" cx="871.16" cy="413.36" r="2.7"/><circle class="cls-4" cx="876.13" cy="531.34" r="2.7"/><circle class="cls-6" cx="876.13" cy="530.23" r="2.7"/><circle class="cls-4" cx="873.86" cy="472.9" r="2.7"/><circle class="cls-6" cx="873.86" cy="471.8" r="2.7"/><path class="cls-3" d="M936.1,542.38s1.84,2.76,0,4,.18,4.42.18,4.42-4.59,2.68-2.57,5.11.74,13.34.74,13.34l-5.52,9.19s.33,5.89.35,13.85c0,12.42-.73,29.88-4.77,37.84l.54,65.31s-19.33,7.07-35.51,4.91l-2.4-104.8s3.5-59.43,4.79-70.83a119.7,119.7,0,0,0,.92-17.85s-.55-17.84-2.4-26.11c0,0-2-35.88-2.2-45.81-.09-4.75.16-18.61.44-31.79.31-14.41.66-28,.66-28l-3.65-28.89s3.65-.36,4.75,1.1a10.63,10.63,0,0,0,1.6,1.23h0c6.31,4.26,28.57,17.36,28.57,17.36s12.32,4.9,15.27,11.92,5,12,6.43,14,2.21,11.4,2.21,11.4,4.24,17.3,7.55,20.23S957.77,445,957.77,445l-29.25,23S926,506.3,925.4,507.78,936.1,542.38,936.1,542.38Z"/><path class="cls-3" d="M937.21,542.38s1.83,2.76,0,4,.17,4.42.17,4.42-4.59,2.68-2.57,5.11.74,13.34.74,13.34l-5.5,9.19s.33,5.89.36,13.85c0,12.42-.73,29.88-4.77,37.84l.55,65.31s-19.33,7.07-35.51,4.91l-2.39-104.8s3.49-59.43,4.79-70.83a117.08,117.08,0,0,0,.91-17.85s-.55-17.84-2.39-26.11c0,0-2-35.88-2.21-45.81-.09-4.75.16-18.61.44-31.79.31-14.41.66-28,.66-28l-4.82-29.28s4.82,0,5.93,1.49a9.08,9.08,0,0,0,1.6,1.23h0c6.3,4.26,28.56,17.36,28.56,17.36s12.29,4.9,15.29,11.92,5,12,6.43,14,2.21,11.4,2.21,11.4,4.24,17.3,7.55,20.23,5.7,21.53,5.7,21.53l-29.25,23s-2.57,38.26-3.13,39.74S937.21,542.38,937.21,542.38Z"/><path class="cls-4" d="M902.18,383.65l2.65,7.7-13.91,14c.31-14.41.66-28,.66-28l-4.82-29.27s4.82,0,5.93,1.49a9.08,9.08,0,0,0,1.6,1.23h0l11.82,34.09Z"/><path class="cls-3" d="M901.05,381.44l2.65,7.69-13.9,14c.3-14.41.66-28,.66-28l-4.83-29.28s4.83,0,5.93,1.49a10.63,10.63,0,0,0,1.6,1.23h0l11.89,34.12Z"/><path class="cls-4" d="M901.05,305.25a34.17,34.17,0,0,1-1.68,10.61,1.43,1.43,0,0,1-1.08-.26c-.27-9-4.69-17.46-10.14-24.65a26.09,26.09,0,0,0-5.5-5.7,10.74,10.74,0,0,0-7.46-2.11c-3,.41-5.65,2.45-8.68,2.71-4,.33-7.58-2.44-11.55-2.57a11.31,11.31,0,0,0-8.49,3.94,23,23,0,0,0-4.55,8.43,49.44,49.44,0,0,0-2.54,14.56c0,2.8-.32,6.31-2.92,7.33a14.89,14.89,0,0,0-3.77-11.4l-.06-.07v-.82a34.22,34.22,0,1,1,68.44,0Z"/><path class="cls-11" d="M881.05,250.92a23.57,23.57,0,0,0-16.62-1.3c-2.77.82-5.38,2.15-8.19,2.82-6,1.45-13-.12-18.15,3.39-2.86,2-4.58,5.16-6.18,8.24l-4,7.61c-2.18,4.17-4.38,8.41-5.29,13s-.36,9.73,2.55,13.43c2.11,2.68,5.25,4.37,7.55,6.9a15,15,0,0,1,3.76,11.43c2.6-1,2.86-4.53,2.92-7.33a49.44,49.44,0,0,1,2.54-14.56,23,23,0,0,1,4.55-8.43,11.32,11.32,0,0,1,8.49-3.95c4,.14,7.59,2.91,11.55,2.57,3-.25,5.66-2.29,8.68-2.7a10.74,10.74,0,0,1,7.46,2.11,25.6,25.6,0,0,1,5.49,5.7c5.46,7.2,9.89,15.62,10.15,24.65,1.13.82,2.76-.26,3.32-1.54s.58-2.78,1.29-4c.82-1.41,2.39-2.17,3.62-3.23,3.12-2.69,3.9-7.22,3.78-11.33s-.92-8.28-.14-12.32c.47-2.47,1.53-4.8,2.11-7.25s.65-5.2-.72-7.31c-2-3.09-6.21-3.71-9.88-4-4.17-.36-7.9.1-10.56-3.41a39.09,39.09,0,0,0-4.2-5.14C886.38,254.44,881.05,251.14,881.05,250.92Z"/><path class="cls-4" d="M772.33,461.8l-10.44-19.31-3.31,29.8s1.84,13.24,1.47,15.27,7.54,20.23,7.54,20.23,26.13,46.55,36.8,48.94l36-25.76-9.56-12.14s-3.31-1.29-4.14,0c0,0-17.76-30.54-19.59-32.74s-1.48-6.63-1.48-6.63-2.76-2.94-1.84-5.7-5.28-12.32-5.28-12.32l5.7-5.33Z"/><path class="cls-3" d="M762.44,440.28l-2.76,2.21-3.31,29.8s1.84,13.24,1.47,15.27,7.55,20.23,7.55,20.23,26.12,46.55,36.79,48.94L838.24,531l-9.57-12.14s-3.31-1.29-4.14,0c0,0-17.75-30.54-19.59-32.74s-1.47-6.63-1.47-6.63-2.76-2.94-1.84-5.7-5.34-12.32-5.34-12.32l5.7-5.33Z"/><path class="cls-4" d="M933.71,557.06c2,2.43.74,13.35.74,13.35l-5.52,9.13s.33,5.9.35,13.86L920,596.3a5.51,5.51,0,0,1-6.91-3.63,5.29,5.29,0,0,1-.25-1.81l1.61-51.6,21.65,8.27c-1.84,1.28.18,4.42.18,4.42S931.69,554.63,933.71,557.06Z"/><path class="cls-3" d="M934.81,556c2,2.42.74,13.34.74,13.34l-5.5,9.14s.33,5.89.36,13.85l-9.45,3a5.38,5.38,0,0,1-7-5.31l1.61-51.78,21.64,8.29c-1.85,1.28.17,4.42.17,4.42S932.79,553.53,934.81,556Z"/><path class="cls-10" d="M942,531.34s-1.47,9.39-5.15,9.94-5.33,15.19-9,14.68-1.24-13.62-1.11-16.16-4-13.06-.92-15.45,12.88,0,12.88,0Z"/><path class="cls-4" d="M949.77,459l6.93-14s2.77,10.67,2.77,16.37,3.86,6.26,3.86,6.26,4.23,5,2,8.65S962.21,489,962.21,489s.73,17.29-2.58,19.68-4,8.1-4,8.1-6.07,10.85-5.88,13.43-8.46,20-8.46,20,4.23-21.71-20.42-31.09c0,0-.19-7.36,1.65-9.38s4.71-3,2.91-13.16-.52-22.41-.52-24.86,5.52-17.72,5.52-17.72Z"/><path class="cls-3" d="M952.85,443l6.06,2s2.77,10.67,2.77,16.37,3.86,6.26,3.86,6.26,4.23,5,2,8.65S964.41,489,964.41,489s.74,17.29-2.57,19.68-4,8.1-4,8.1-6.07,10.85-5.88,13.43-8.47,20-8.47,20,4.23-21.71-20.42-31.09c0,0-.18-7.36,1.66-9.38s4.71-3,2.91-13.16-.52-22.41-.52-24.86,5.52-17.72,5.52-17.72Z"/><path class="cls-4" d="M819,805.91s9.66-6.07,16-1.66S819,805.91,819,805.91Z"/><path class="cls-4" d="M894.05,787.14s8.55-1.1,15.73,6.63S894.05,787.14,894.05,787.14Z"/><g class="cls-7"><path d="M906.54,303.53c-1.23,1.07-2.81,1.82-3.63,3.23-.7,1.21-.72,2.71-1.28,4s-2.19,2.36-3.33,1.54c-.26-9-4.69-17.45-10.14-24.65a25.56,25.56,0,0,0-5.49-5.69,10.75,10.75,0,0,0-7.47-2.12c-3,.41-5.64,2.45-8.67,2.71-4,.33-7.59-2.44-11.56-2.57a11.26,11.26,0,0,0-8.48,3.94,23,23,0,0,0-4.55,8.43,49.44,49.44,0,0,0-2.54,14.56c-.06,2.79-.32,6.27-2.9,7.31a13.84,13.84,0,0,1,0,2.23c2.61-1,2.87-4.53,2.93-7.33A49.44,49.44,0,0,1,842,294.56a23,23,0,0,1,4.55-8.43,11.3,11.3,0,0,1,8.48-3.95c4,.14,7.6,2.91,11.56,2.57,3-.25,5.66-2.29,8.67-2.7a10.75,10.75,0,0,1,7.47,2.11,25.6,25.6,0,0,1,5.49,5.7c5.45,7.2,9.88,15.62,10.14,24.65,1.14.82,2.77-.26,3.33-1.54s.58-2.78,1.28-4c.82-1.41,2.4-2.17,3.63-3.23,3.12-2.69,3.9-7.22,3.78-11.33V294C910.15,297.61,909.2,301.24,906.54,303.53Z"/><path d="M832.71,302.83c-2.29-2.53-5.43-4.23-7.54-6.91a14.52,14.52,0,0,1-2.91-8.18,15.43,15.43,0,0,0,2.91,10.39c2.11,2.68,5.25,4.37,7.54,6.9a15,15,0,0,1,3.78,8.92A15,15,0,0,0,832.71,302.83Z"/><path d="M912.29,272.63c-.59,2.45-1.64,4.78-2.12,7.25a23.19,23.19,0,0,0-.31,5.06,19.41,19.41,0,0,1,.31-2.85c.48-2.47,1.53-4.8,2.12-7.25a12.54,12.54,0,0,0,.33-4.14A12.56,12.56,0,0,1,912.29,272.63Z"/></g><ellipse class="cls-1" cx="132.73" cy="823.23" rx="97.44" ry="15.65"/><rect class="cls-12" x="129.6" y="523.42" width="6.27" height="141.17"/><path class="cls-6" d="M175.28,664.17l-.4,6.36-.55,9-.23,3.74-.56,9L173.3,696l-.55,9-6.33,102.07a17.28,17.28,0,0,1-17.25,16.22H116.3A17.27,17.27,0,0,1,99.05,807L92.72,704.94l-.55-9-.23-3.74-.57-9-.23-3.74-.55-9-.4-6.36a9,9,0,0,1,8.48-9.5h67.68a9,9,0,0,1,9,9C175.3,663.82,175.29,664,175.28,664.17Z"/><polygon class="cls-13" points="174.88 670.52 174.32 679.5 91.14 679.5 90.58 670.52 174.88 670.52"/><polygon class="cls-13" points="174.09 683.24 173.54 692.22 91.93 692.22 91.37 683.24 174.09 683.24"/><polygon class="cls-13" points="173.3 695.97 172.75 704.94 92.72 704.94 92.16 695.97 173.3 695.97"/><path class="cls-5" d="M81.05,576.34c36.52,26.42,51.73,67.74,51.73,67.74s-44-1.51-80.53-27.93S.49,548.44.49,548.44,44.49,549.92,81.05,576.34Z"/><path class="cls-14" d="M.49,548.44s45.67,25.35,60.32,46.34,71.93,49.32,71.93,49.32"/><path class="cls-5" d="M104.58,523.12C124.46,537.49,132.74,560,132.74,560s-24-.82-43.83-15.19-28.16-36.87-28.16-36.87S84.71,508.74,104.58,523.12Z"/><path class="cls-14" d="M60.75,507.92s24.86,13.8,32.84,25.22S132.74,560,132.74,560"/><path class="cls-5" d="M161.62,558.84C138.79,583.93,134,616.72,134,616.72s32.19-7.9,55-33,27.66-57.88,27.66-57.88S184.45,533.75,161.62,558.84Z"/><path class="cls-14" d="M216.64,525.85s-29.74,25.72-37.3,43.44S134,616.72,134,616.72"/></svg>