<svg id="a47bc909-72c0-4996-baf1-6f4140acb8df" xmlns="http://www.w3.org/2000/svg" viewBox="0 0 644.46 569.06"><defs><style>.cls-1{fill:#e6e6e6;}.cls-2{fill:#fff;}.cls-3{fill:#f50057;}.cls-4{fill:#a0616a;}.cls-5{fill:#2f2e41;}.cls-6{fill:#ccc;}</style></defs><path class="cls-1" d="M560,340.9H17.65a16.52,16.52,0,0,1-16.5-16.5V18.6H576.49V324.4A16.52,16.52,0,0,1,560,340.9Z"/><path class="cls-2" d="M538.41,309.32H39.24a8.51,8.51,0,0,1-8.5-8.5V58.68a8.51,8.51,0,0,1,8.5-8.5H538.41a8.51,8.51,0,0,1,8.5,8.5V300.82A8.51,8.51,0,0,1,538.41,309.32Z"/><path class="cls-3" d="M577.65,29.75H0V16.5A16.52,16.52,0,0,1,16.5,0H561.15a16.52,16.52,0,0,1,16.5,16.5Z"/><path class="cls-1" d="M157.31,216.61H68.47a8.51,8.51,0,0,1-8.5-8.5V149.7a8.51,8.51,0,0,1,8.5-8.5h88.84a8.51,8.51,0,0,1,8.5,8.5v58.41A8.51,8.51,0,0,1,157.31,216.61Z"/><path class="cls-1" d="M513,150.66H232.24a4.73,4.73,0,0,1,0-9.46H513a4.73,4.73,0,0,1,0,9.46Z"/><path class="cls-1" d="M513,184.48H232.24a4.73,4.73,0,0,1,0-9.46H513a4.73,4.73,0,0,1,0,9.46Z"/><path class="cls-1" d="M513,218.3H232.24a4.73,4.73,0,1,1,0-9.46H513a4.73,4.73,0,0,1,0,9.46Z"/><polygon class="cls-4" points="419.55 556.31 407.29 556.31 401.46 509.02 419.55 509.02 419.55 556.31"/><path class="cls-5" d="M398.53,552.81h23.64v14.88H383.64A14.89,14.89,0,0,1,398.53,552.81Z"/><polygon class="cls-4" points="470.55 556.31 458.29 556.31 452.46 509.02 470.55 509.02 470.55 556.31"/><path class="cls-5" d="M449.53,552.81h23.64v14.88H434.64A14.89,14.89,0,0,1,449.53,552.81Z"/><path class="cls-5" d="M469,545.44H456.51a4.53,4.53,0,0,1-4.49-4.13L441.45,413.92a1.5,1.5,0,0,0-3-.06L423.27,541.47a4.5,4.5,0,0,1-4.47,4H403.48A4.51,4.51,0,0,1,399,541q0-12-.14-24.17c-.49-71.92-1-146.29,14-175.43l.14-.26,54.19-.93.13.3c16.4,35.83,11.42,115.87,6.61,193.28l-.46,7.46A4.51,4.51,0,0,1,469,545.44Z"/><circle class="cls-4" cx="443.31" cy="219.86" r="24.56"/><path class="cls-3" d="M409.83,345.62l.68-28.16-4.88-22a35.43,35.43,0,0,1,7.88-31.12,34.87,34.87,0,0,1,29.22-12.11h0l1.06.09a35,35,0,0,1,24.13,12.9,35.44,35.44,0,0,1,7.77,26.58l-5.9,51.52Z"/><path class="cls-4" d="M389,396.09A10,10,0,0,0,390.7,382a9.91,9.91,0,0,0-1.21-1.3l13.83-32.95-18.25,3.43-10.33,30.76A10.11,10.11,0,0,0,389,396.09Z"/><path class="cls-4" d="M493.31,400a10.05,10.05,0,0,1-.93-14.19,10.55,10.55,0,0,1,1.28-1.22l-11.93-33.69,18,4.46,8.57,31.31a10.11,10.11,0,0,1-15,13.33Z"/><path class="cls-3" d="M391.16,380a4.51,4.51,0,0,1-1.84-.4l-10.52-4.71a4.48,4.48,0,0,1-2.44-5.48L394,314.54l6.82-41.3a11.09,11.09,0,1,1,21.89,3.61c0,.24-.09.48-.14.72L412.2,321.86l-16.74,54.9a4.49,4.49,0,0,1-4.3,3.19Z"/><path class="cls-3" d="M491.52,380a4.49,4.49,0,0,1-4.3-3.19l-16.73-54.87-10.37-44.32a11.09,11.09,0,0,1,21.59-5.05q.09.35.15.72l6.84,41.37,17.63,54.75a4.49,4.49,0,0,1-2.45,5.48l-10.52,4.71A4.48,4.48,0,0,1,491.52,380Z"/><path class="cls-5" d="M443.82,192.71c-6.83-3-15.74.73-18.5,7.64-1.71,4.3-1.19,9.15-.25,13.68s2.3,9.05,2.15,13.68-2.14,9.54-6.24,11.68c-2.45,1.28-5.32,1.42-8,2.19s-5.4,2.54-5.79,5.28c-.58,4.15,4.45,7.3,4.42,11.49,0,4.43-5.58,7.06-6.3,11.44a7.61,7.61,0,0,0,2.93,6.75,19.76,19.76,0,0,0,6.89,3.33,118.74,118.74,0,0,0,59.25,3.38c3.92-.78,8-1.84,11-4.43s4.78-7.11,3-10.7c-2.62-5.39-10.95-5.7-13.85-10.94-1.75-3.14-.94-7-.58-10.57.95-9.23,3.13-20,.84-29-2.07-8.12-6.57-18.62-13-24-4.61-3.86-13.42-2.1-19.32-.91Z"/><path class="cls-6" d="M643.46,569.06h-350a1,1,0,0,1,0-2h350a1,1,0,0,1,0,2Z"/><path class="cls-1" d="M606.61,546.29c-14.42,19.31-44.35,21.34-44.35,21.34s-6.56-29.28,7.86-48.59,44.36-21.34,44.36-21.34S621,527,606.61,546.29Z"/><path class="cls-1" d="M533.15,553.55c9.52,12.74,29.27,14.08,29.27,14.08s4.32-19.32-5.19-32.06S528,521.48,528,521.48,523.64,540.8,533.15,553.55Z"/></svg>